{
    "asset" : {
        "generator" : "Khronos glTF Blender I/O v1.6.16",
        "version" : "2.0"
    },
    "scene" : 0,
    "scenes" : [
        {
            "name" : "Scene",
            "nodes" : [
                0,
                1,
                2
            ]
        }
    ],
    "nodes" : [
        {
            "name" : "Light",
            "rotation" : [
                0.16907575726509094,
                0.7558803558349609,
                -0.27217137813568115,
                0.570947527885437
            ],
            "translation" : [
                4.076245307922363,
                5.903861999511719,
                -1.0054539442062378
            ]
        },
        {
            "name" : "Camera",
            "rotation" : [
                0.7071049213409424,
                0.0016194371273741126,
                -0.001619429443962872,
                0.7071049809455872
            ],
            "translation" : [
                -0.010444484651088715,
                0.33772245049476624,
                4.060594081878662
            ]
        },
        {
            "mesh" : 0,
            "name" : "Cylinder",
            "rotation" : [
                0,
                0.19509030878543854,
                0,
                0.9807853102684021
            ],
            "scale" : [
                1,
                0.5299813747406006,
                1
            ]
        }
    ],
    "materials" : [
        {
            "doubleSided" : true,
            "name" : "Material.001",
            "pbrMetallicRoughness" : {}
        }
    ],
    "meshes" : [
        {
            "name" : "Cylinder",
            "primitives" : [
                {
                    "attributes" : {
                        "POSITION" : 0,
                        "NORMAL" : 1
                    },
                    "indices" : 2,
                    "material" : 0
                }
            ]
        }
    ],
    "accessors" : [
        {
            "bufferView" : 0,
            "componentType" : 5126,
            "count" : 176,
            "max" : [
                1.0583455562591553,
                1.6579831838607788,
                1.0583455562591553
            ],
            "min" : [
                -1.0583454370498657,
                -0.43394219875335693,
                -1.0583455562591553
            ],
            "type" : "VEC3"
        },
        {
            "bufferView" : 1,
            "componentType" : 5126,
            "count" : 176,
            "type" : "VEC3"
        },
        {
            "bufferView" : 2,
            "componentType" : 5123,
            "count" : 276,
            "type" : "SCALAR"
        }
    ],
    "bufferViews" : [
        {
            "buffer" : 0,
            "byteLength" : 2112,
            "byteOffset" : 0
        },
        {
            "buffer" : 0,
            "byteLength" : 2112,
            "byteOffset" : 2112
        },
        {
            "buffer" : 0,
            "byteLength" : 552,
            "byteOffset" : 4224
        }
    ],
    "buffers" : [
        {
            "byteLength" : 4776,
            "uri" : "diamond1.bin"
        }
    ]
}
