<svg xmlns="http://www.w3.org/2000/svg" width="512" height="514" viewBox="0 0 40 42" fill="none">
    <script xmlns=""/>
    <g id="Frame 1">
        <path id="Vector"
              d="M22.0632 0.758967C22.1195 0.768912 22.1759 0.768912 22.2322 0.758967L37.6524 9.60035C38.0605 9.83474 38.3995 10.1724 38.6352 10.5793C38.871 10.9861 38.9951 11.4478 38.995 11.9176L39 30.7142C38.9999 30.8501 38.9582 30.9821 38.8807 31.0921C38.3436 31.8579 37.8066 32.395 37.2695 32.7033C32.5124 35.425 27.7668 38.1649 23.0328 40.9231C22.4063 41.2861 22.0035 41.296 21.3372 41.1618C21.178 41.1286 21.0985 41.0308 21.0985 40.8684C21.0719 39.2572 21.0719 37.6494 21.0985 36.0449C21.1233 34.757 21.7698 34.4487 22.7494 33.8719C25.5308 32.2276 28.327 30.6081 31.1382 29.0136C31.2687 28.9397 31.3773 28.8326 31.4531 28.7031C31.5288 28.5737 31.5689 28.4265 31.5694 28.2766C31.5699 28.1266 31.5308 27.9792 31.4559 27.8493C31.3811 27.7193 31.2732 27.6115 31.1432 27.5367L22.0035 22.2408C21.725 22.0789 21.494 21.8467 21.3334 21.5675C21.1728 21.2882 21.0884 20.9717 21.0885 20.6496L21.0885 1.27115C21.0885 1.11865 21.1565 1.0076 21.2924 0.937983C21.478 0.841845 21.735 0.782172 22.0632 0.758967Z"
              fill="#3F3681"/>
        <path id="Vector_2"
              d="M16.9368 41.241C16.8805 41.2311 16.8241 41.2311 16.7678 41.241L1.34759 32.3996C0.93952 32.1652 0.60051 31.8276 0.364777 31.4207C0.129045 31.0139 0.00493403 30.5522 0.00497264 30.0824L0 11.2857C8.53976e-05 11.1499 0.0417669 11.0179 0.119344 10.9078C0.65639 10.142 1.19344 9.60499 1.73048 9.29668C6.48765 6.57499 11.2332 3.83505 15.9672 1.07689C16.5937 0.713885 16.9965 0.70394 17.6628 0.838202C17.822 0.871353 17.9015 0.969148 17.9015 1.13159C17.9281 2.74273 17.9281 4.35055 17.9015 5.95506C17.8767 7.24298 17.2302 7.55128 16.2506 8.12811C13.4692 9.7724 10.673 11.3918 7.86176 12.9864C7.73128 13.0603 7.62267 13.1674 7.54694 13.2968C7.47121 13.4263 7.43106 13.5734 7.43056 13.7234C7.43005 13.8733 7.46921 14.0208 7.54407 14.1507C7.61892 14.2806 7.72681 14.3885 7.85678 14.4633L16.9965 19.7591C17.275 19.9211 17.506 20.1533 17.6666 20.4325C17.8272 20.7118 17.9116 21.0283 17.9115 21.3504L17.9115 40.7288C17.9115 40.8813 17.8435 40.9924 17.7076 41.062C17.522 41.1581 17.265 41.2178 16.9368 41.241Z"
              fill="#3F3681"/>
    </g>
    <div xmlns="" id="divScriptsUsed" style="display: none"/>
    <script xmlns="" id="globalVarsDetection" src="chrome-extension://cmkdbmfndkfgebldhnkbfhlneefdaaip/js/wrs_env.js"/>
</svg>