<svg xmlns="http://www.w3.org/2000/svg" width="256" height="256" viewBox="0 0 130 200" fill="none">
    <g id="Layer 1">
        <path id="Vector" d="M68.5236 163.76L85.5996 146.735C86.1492 146.187 87.0076 146.089 87.6684 146.501C92.6646 149.648 111.377 163.519 90.8428 183.992C71.031 203.743 54.7456 200.677 49.033 198.134C48.1869 197.759 48.2487 196.54 49.1256 196.238C57.0553 193.529 83.6727 182.859 68.4804 166.062C67.8814 165.397 67.8937 164.388 68.5236 163.753V163.76Z" fill="#FFC436"/>
        <path id="Vector_2" d="M62.4466 71.7976C75.3416 35.3231 60.4519 18.9638 56.0362 15.4235C55.6286 15.0971 55.0234 15.3927 55.0172 15.916C54.7084 75.9782 31.8459 65.0002 6.85265 116.264C-11.9587 154.844 17.6787 182.908 32.5375 190.807C33.8653 191.516 35.1252 189.755 34.0197 188.739C22.0017 177.755 -0.0518288 144.716 35.1005 108.506C46.433 96.8322 57.0367 87.1225 62.4528 71.7976H62.4466Z" fill="#FFC436"/>
        <path id="Vector_3" d="M58.9017 98.9995C60.8038 97.7804 61.6066 98.864 61.6437 101.118L62.1872 127.919C62.1872 128.911 62.638 130.191 61.6437 130.142C34.4705 128.824 30.765 171.308 63.4594 162.639C64.1511 162.454 64.429 163.002 64.4537 163.716C64.7254 170.077 52.343 184.109 35.6994 173.771C12.3057 159.24 25.8182 120.204 58.8955 98.9995H58.9017Z" fill="#FFC436"/>
        <path id="Vector_4" d="M69.6969 89.6962C69.2769 89.1728 68.437 89.4376 68.437 90.1087V113.696C68.437 137.814 76.4469 140.523 91.2872 140.523C120.146 140.523 106.893 171.61 102.404 177.57C102.008 178.093 102.49 178.82 103.132 178.678C109.462 177.262 128.045 171.499 129.416 155.053C131.269 132.888 118.917 124.514 110.79 121.836C90.3053 115.094 79.3928 101.727 69.6969 89.69V89.6962Z" fill="#FFC436"/>
        <path id="Vector_5" d="M66.0348 10.467L75.9963 0.53567C76.8053 -0.270905 78.1393 -0.147764 78.7877 0.78811C88.0452 14.2906 110.599 46.689 68.326 81.3903C67.8011 81.8213 67.0353 81.341 67.2638 80.7007C70.3023 71.933 84.667 36.8439 65.8557 12.8313C65.3061 12.1233 65.4049 11.1074 66.0348 10.4732V10.467Z" fill="#FFC436"/>
    </g>
    <div xmlns="" id="divScriptsUsed" style="display: none"/><script xmlns="" id="globalVarsDetection" src="chrome-extension://cmkdbmfndkfgebldhnkbfhlneefdaaip/js/wrs_env.js"/></svg>