<svg xmlns="http://www.w3.org/2000/svg" width="256" height="256" viewBox="0 0 409 288" fill="none">
    <path d="M218 0L18.5 75.5V105.5L218 71.5L275.5 61.5L339.5 75.5V44.5L218 0Z" fill="#950316"/>
    <path d="M275.5 79L47.5 115V137L275.5 126.5L408.5 138V103.5L275.5 79Z" fill="#950316"/>
    <path d="M189 141L0 158.5V186.5H189H339.5V154.5L189 141Z" fill="#950316"/>
    <path d="M218 71.5V0L339.5 44.5V76L275.5 62L218 71.5Z" fill="#A9A9A9"/>
    <path d="M275.5 126.5V79L342 91L408.5 103.5V138L275.5 126.5Z" fill="#A9A9A9"/>
    <path d="M189 186.5V141L339.5 154.5V186.5H189Z" fill="#A9A9A9"/>
    <path d="M395.4 219.526L409 213.123V270.754H395.4V219.526Z" fill="#950316"/>
    <path d="M73.5333 232.333L89.0762 225.93L89.0762 265L22.3714 266.272L10.7143 275.877L1 265.632L12.6571 257.947V232.333L26.2571 225.93V252.825H46.3333V232.333L62.5238 225.93V252.825H73.5333V232.333Z" fill="#950316"/>
    <path d="M126.638 225.93L166.143 208V225.93L189.457 241.298V265.632H112.39L96.2 247.702V214.404L112.39 208V247.702L115.629 251.544H174.562V243.86L170.676 239.377L126.638 238.096V225.93Z" fill="#950316"/>
    <path d="M369.495 237.456L384.39 231.053L384.391 270.754H345.533L333.229 281L324.162 270.754L335.171 264.351V237.456L348.124 231.053V257.307H369.495V237.456Z" fill="#950316"/>
    <path d="M302.143 217.605L315.743 211.202V268.833H302.143V217.605Z" fill="#950316"/>
    <path d="M273.167 233.42L287 227V253.963L284.365 268.728L268.556 279H216.516L204 264.877L268.556 265.5L273.167 260.383V233.42Z" fill="#950316"/>
    <path d="M51 223V214H29V223H51Z" fill="#950316"/>
    <path d="M375 288V279H353V288H375Z" fill="#950316"/>
    <path d="M246 233H235V242H246V233Z" fill="#950316"/>
    <path d="M77 214H66V223H77V214Z" fill="#950316"/>
    <div xmlns="" id="divScriptsUsed" style="display: none"/><script xmlns="" id="globalVarsDetection" src="chrome-extension://cmkdbmfndkfgebldhnkbfhlneefdaaip/js/wrs_env.js"/></svg>