<svg xmlns="http://www.w3.org/2000/svg" width="256" height="256" version="1.1" viewBox="0.00 0.00 1291.00 1624.00">
    <path stroke="#916a1f" stroke-width="2.00" fill="none" stroke-linecap="butt" vector-effect="non-scaling-stroke" d="   M 238.24 981.05   Q 240.53 980.75 241.76 978.65"/>
    <path fill="#ffb11b" d="   M 834.76 81.49   Q 837.78 82.33 840.90 83.28   Q 958.60 119.09 1049.61 200.59   Q 1050.80 201.65 1051.91 202.81   C 1053.16 204.11 1054.66 204.94 1055.88 206.24   C 1059.17 209.74 1062.84 212.67 1066.21 216.05   C 1071.12 220.99 1076.28 225.70 1080.72 230.89   C 1083.05 233.61 1085.76 235.85 1088.00 238.73   C 1089.25 240.35 1090.85 241.62 1092.20 243.18   Q 1095.05 246.48 1098.02 249.92   Q 1138.60 296.90 1167.06 350.27   Q 1218.09 445.98 1228.85 553.85   Q 1228.96 554.99 1229.01 556.15   C 1229.08 557.64 1229.61 558.82 1229.50 560.35   Q 1229.38 562.07 1229.70 563.54   C 1230.25 566.02 1229.77 568.38 1230.22 570.85   C 1230.73 573.66 1230.46 576.46 1230.75 579.39   Q 1231.11 582.92 1231.12 586.47   Q 1231.12 589.96 1231.35 593.52   Q 1231.82 600.76 1231.48 607.97   Q 1231.46 608.48 1230.94 608.48   L 684.24 608.48   Q 683.74 608.48 683.74 607.99   L 683.74 61.04   Q 683.74 60.48 684.30 60.48   Q 691.83 60.46 698.93 60.51   Q 699.44 60.51 699.91 60.78   A 1.46 1.42 59.7 0 0 700.64 60.98   C 704.88 60.98 709.15 60.76 713.37 61.32   Q 715.59 61.62 718.18 61.55   Q 720.00 61.50 721.82 61.71   Q 723.71 61.94 725.50 62.07   Q 748.81 63.78 772.96 67.73   Q 802.08 72.48 834.76 81.49   Z"/>
    <path fill="white" d="   M 531.62 137.43   Q 497.80 145.05 468.50 155.73   Q 374.18 190.11 298.64 257.46   Q 297.61 258.39 296.66 259.35   C 295.39 260.63 293.91 261.41 292.67 262.76   Q 290.48 265.16 288.12 267.19   Q 284.84 270.03 283.45 271.44   C 278.09 276.87 272.01 282.26 267.11 288.20   C 265.36 290.32 263.21 292.17 261.34 294.28   Q 257.91 298.15 254.41 302.15   Q 215.69 346.38 187.49 399.02   Q 143.27 481.59 130.78 574.97   C 130.62 576.13 130.87 577.21 130.29 578.27   Q 130.01 578.77 130.10 579.33   Q 130.36 581.09 129.74 582.58   Q 129.56 583.02 129.61 583.49   Q 129.79 585.10 129.36 586.58   C 128.82 588.47 129.42 590.25 128.80 592.00   C 128.20 593.72 128.78 595.59 128.34 597.41   C 127.80 599.61 128.27 601.64 127.83 603.79   Q 127.54 605.20 127.56 606.71   Q 127.61 609.23 127.27 612.11   Q 126.77 616.49 127.06 621.97   C 127.12 623.15 126.41 624.01 126.52 625.32   C 126.72 627.56 125.89 629.48 125.95 631.73   Q 126.12 637.82 125.93 643.85   Q 125.72 650.80 121.15 654.34   C 115.07 659.05 104.39 657.66 100.35 650.82   Q 99.08 648.67 99.11 646.09   Q 99.24 633.22 99.16 621.82   C 99.16 621.36 99.33 621.05 99.54 620.65   Q 99.67 620.39 99.68 620.09   C 99.70 616.27 99.55 612.51 100.00 608.65   C 100.37 605.47 100.27 602.06 100.54 598.80   Q 106.69 524.12 131.88 455.90   Q 141.46 429.95 146.71 419.41   C 147.88 417.07 148.82 414.59 149.98 412.22   Q 151.83 408.44 153.79 404.31   Q 158.88 393.61 167.37 378.34   Q 194.00 330.42 229.26 289.08   C 232.24 285.59 236.36 281.27 239.75 277.24   Q 241.51 275.16 243.36 273.37   C 245.09 271.69 246.39 269.81 248.11 268.09   Q 258.79 257.40 269.48 246.71   Q 270.63 245.56 273.12 243.42   C 275.21 241.63 276.94 239.34 279.19 237.85   C 280.44 237.02 281.33 235.80 282.44 234.82   Q 373.08 154.98 488.40 120.09   Q 497.68 117.28 507.66 114.75   Q 536.76 107.38 566.53 103.03   Q 583.49 100.55 601.52 99.09   Q 604.55 98.84 607.52 98.70   Q 609.75 98.59 611.94 98.27   Q 614.17 97.95 616.43 98.21   Q 617.33 98.31 618.16 97.86   A 1.80 1.77 30.2 0 1 619.02 97.64   L 643.82 97.66   A 0.66 0.66 0.0 0 1 644.48 98.32   L 644.48 124.72   A 0.28 0.27 -1.1 0 1 644.21 124.99   Q 636.19 125.02 628.50 125.00   Q 627.88 125.00 626.94 125.40   A 2.02 1.94 -53.3 0 1 625.99 125.56   Q 621.45 125.23 616.96 125.76   Q 614.90 126.00 613.03 125.97   Q 610.93 125.93 609.02 126.25   Q 607.54 126.50 605.91 126.47   Q 604.28 126.44 602.68 126.71   Q 601.05 126.99 599.37 127.06   Q 597.85 127.13 595.91 127.32   Q 561.25 130.76 531.62 137.43   Z"/>
    <path fill="white" d="   M 534.77 163.10   Q 534.89 163.03 535.01 163.01   Q 558.21 157.70 579.05 155.00   Q 580.45 154.82 581.35 154.54   Q 581.79 154.41 582.24 154.47   Q 583.56 154.65 584.79 154.29   C 586.55 153.78 587.95 154.24 589.48 153.74   C 591.19 153.18 592.66 153.55 594.50 153.13   Q 596.59 152.66 598.75 152.99   Q 599.60 153.12 600.50 152.49   A 1.15 1.14 -57.8 0 1 601.36 152.29   Q 603.57 152.65 605.67 152.17   C 608.08 151.62 610.31 152.12 612.63 151.71   C 615.56 151.18 618.68 151.23 621.53 151.35   C 623.14 151.42 624.46 150.84 625.99 150.83   Q 634.19 150.79 643.82 150.81   Q 644.48 150.81 644.48 151.47   L 644.48 177.05   Q 644.48 177.85 643.69 177.77   Q 641.18 177.50 638.67 177.93   Q 636.63 178.27 634.85 178.19   Q 633.38 178.12 632.12 178.47   Q 630.73 178.86 629.36 178.77   Q 625.61 178.52 622.26 178.96   Q 619.66 179.29 617.32 179.22   Q 614.65 179.13 612.13 179.49   Q 610.26 179.76 608.41 179.75   Q 606.69 179.75 605.08 180.06   C 602.93 180.46 600.79 179.92 598.72 180.54   Q 597.12 181.02 595.26 180.73   A 1.68 1.63 35.1 0 0 594.26 180.89   C 592.95 181.53 591.39 181.24 589.92 181.41   Q 502.36 191.97 424.70 233.51   Q 376.24 259.42 332.61 298.22   C 330.61 300.00 328.94 302.14 326.96 303.83   C 323.15 307.06 319.88 310.56 316.31 313.91   Q 312.14 317.81 307.84 318.55   Q 302.58 319.45 297.93 315.79   Q 293.61 312.40 292.51 307.25   Q 291.69 303.40 293.09 299.82   Q 294.08 297.30 297.13 294.39   Q 302.55 289.22 307.33 284.24   C 307.78 283.77 308.44 283.60 308.86 283.19   Q 314.14 278.04 319.08 273.67   Q 385.57 214.82 469.79 182.70   Q 498.62 171.70 530.28 164.03   Q 532.40 163.52 534.56 163.17   Q 534.67 163.15 534.77 163.10   Z"/>
    <path fill="white" d="   M 545.50 215.18   Q 550.80 213.94 555.39 213.01   Q 578.33 208.36 604.31 205.73   C 606.26 205.53 608.12 205.70 610.01 205.31   Q 612.58 204.79 615.77 205.10   Q 616.49 205.17 617.11 204.80   Q 617.57 204.52 618.11 204.52   Q 622.02 204.56 625.78 204.51   Q 626.18 204.50 626.51 204.27   Q 626.89 204.02 627.34 204.02   Q 635.89 203.98 643.81 204.02   Q 644.48 204.02 644.48 204.69   L 644.48 230.25   A 1.17 1.17 0.0 0 1 643.31 231.42   Q 639.74 231.43 636.17 231.42   Q 633.26 231.42 630.47 231.78   Q 627.64 232.15 624.48 231.95   Q 622.79 231.84 621.03 232.21   C 618.51 232.74 615.84 232.39 613.20 232.79   Q 611.09 233.10 608.71 233.10   Q 608.13 233.10 607.53 233.15   Q 579.90 235.69 553.82 241.58   Q 547.29 243.05 540.11 245.02   Q 535.26 246.36 531.38 245.56   Q 524.31 244.12 521.44 236.82   C 520.89 235.44 521.14 234.21 520.61 232.84   Q 520.40 232.29 520.63 231.75   C 521.23 230.39 520.96 229.00 521.52 227.53   C 523.54 222.17 526.99 219.72 532.51 218.33   Q 539.35 216.61 545.50 215.18   Z"/>
    <path fill="white" d="   M 214.66 747.78   Q 216.38 746.00 218.01 744.26   Q 251.61 708.38 257.46 660.02   Q 257.72 657.90 257.98 655.65   C 258.67 649.76 258.22 643.27 258.21 637.49   Q 258.20 634.76 258.60 632.07   Q 258.85 630.33 258.78 628.34   Q 258.72 626.52 258.99 624.78   Q 259.37 622.39 259.29 619.59   Q 259.23 617.64 259.49 615.47   Q 259.73 613.42 259.86 611.29   Q 260.67 597.64 263.60 580.10   Q 274.36 515.73 305.46 458.76   Q 324.45 423.95 348.91 394.96   Q 393.93 341.63 454.31 307.35   Q 525.17 267.11 607.56 259.00   Q 614.03 258.36 621.16 258.19   Q 621.38 258.19 621.56 258.07   L 621.91 257.85   Q 622.02 257.79 622.14 257.78   C 625.00 257.72 627.89 257.98 630.71 257.47   Q 632.24 257.20 633.75 257.19   Q 636.02 257.17 638.20 256.87   Q 640.59 256.55 643.30 256.75   Q 644.48 256.83 644.48 258.02   L 644.48 284.04   A 1.10 1.10 0.0 0 1 643.38 285.14   L 626.95 285.12   Q 626.40 285.12 625.91 285.37   C 624.62 286.04 621.20 285.67 619.75 285.66   Q 617.76 285.65 615.91 286.03   C 614.09 286.40 612.33 286.01 610.43 286.42   Q 608.30 286.88 606.04 286.69   Q 605.52 286.65 605.04 286.87   C 603.84 287.42 602.59 287.15 601.32 287.30   Q 573.67 290.70 549.62 297.42   Q 466.96 320.51 403.14 378.18   Q 400.82 380.27 398.72 382.38   Q 396.56 384.54 394.24 386.58   C 389.26 390.94 385.42 395.82 380.87 400.28   Q 379.40 401.72 378.20 403.28   C 377.11 404.70 375.77 405.91 374.59 407.28   Q 314.87 476.33 294.67 564.06   Q 290.97 580.12 288.31 601.48   C 288.11 603.09 288.46 604.85 287.77 606.31   Q 287.57 606.75 287.62 607.23   Q 287.86 609.34 287.39 611.37   C 286.95 613.30 287.38 615.06 286.82 616.89   Q 286.48 618.01 286.59 619.13   C 286.85 621.79 286.07 624.07 286.07 626.68   Q 286.07 635.44 286.05 644.48   Q 286.04 646.72 285.70 648.87   Q 285.33 651.20 285.59 653.65   C 285.74 654.97 285.20 655.86 285.13 657.09   Q 284.73 664.83 283.44 672.13   Q 272.79 732.56 227.42 773.55   Q 213.42 786.19 194.86 796.33   Q 171.61 809.02 145.76 813.89   C 144.74 814.08 143.63 813.86 142.75 814.40   Q 142.37 814.64 141.91 814.64   Q 140.97 814.64 139.98 814.81   Q 133.82 815.85 130.73 813.33   Q 129.76 812.53 129.14 812.07   Q 128.21 811.39 127.56 810.54   Q 119.65 800.18 128.50 791.06   C 130.04 789.47 133.13 788.09 135.31 787.73   Q 177.23 780.85 209.23 752.65   C 210.04 751.94 211.57 750.23 212.94 749.26   Q 213.86 748.60 214.66 747.78   Z"/>
    <path fill="#ffb11b" d="   M 221.27 526.10   C 223.28 520.02 224.88 513.84 226.87 507.77   Q 254.01 424.82 311.01 357.90   Q 359.49 300.99 424.77 263.26   Q 426.77 262.11 428.92 261.53   Q 431.25 260.90 433.68 261.32   Q 439.30 262.28 442.72 266.84   Q 445.81 270.95 445.10 276.37   C 444.41 281.67 441.03 285.14 436.27 287.89   Q 399.15 309.36 366.13 339.64   Q 354.61 350.19 346.79 358.56   Q 343.47 362.11 340.34 365.59   Q 336.24 370.17 332.05 375.03   Q 294.77 418.28 270.20 471.01   Q 255.21 503.17 246.40 536.67   Q 245.58 539.77 243.71 541.92   C 239.59 546.66 233.06 548.56 227.17 545.38   Q 221.15 542.14 220.06 535.48   Q 219.44 531.66 221.27 526.10   Z"/>
    <path fill="white" d="   M 546.73 325.25   Q 551.25 323.80 555.53 322.46   Q 560.74 320.84 563.98 321.33   Q 570.61 322.33 573.94 328.28   Q 576.76 333.32 575.38 338.37   Q 574.12 342.98 570.61 345.74   Q 568.32 347.54 565.77 348.22   Q 515.08 361.70 471.13 391.96   Q 453.06 404.40 438.32 418.33   Q 435.51 420.99 432.75 423.42   Q 429.37 426.38 427.35 428.77   Q 423.91 432.84 420.20 436.37   C 418.38 438.10 417.18 440.11 415.34 441.77   Q 414.27 442.74 413.32 443.86   Q 356.06 511.12 342.38 598.27   Q 338.96 620.06 339.20 646.36   Q 339.24 650.84 337.74 667.20   Q 336.40 681.90 331.74 700.65   Q 330.65 705.04 328.54 707.61   Q 325.55 711.25 320.67 712.08   Q 310.27 713.86 305.47 704.17   C 304.66 702.53 304.91 701.01 304.27 699.37   Q 304.06 698.84 304.19 698.28   Q 304.51 696.98 304.74 695.58   Q 304.95 694.27 305.36 692.86   Q 307.61 685.07 308.56 679.02   Q 311.41 660.68 311.36 646.71   Q 311.35 644.96 311.62 643.66   Q 311.93 642.16 311.91 640.69   Q 311.82 633.51 312.04 626.58   Q 312.40 615.32 314.30 600.11   Q 315.59 589.77 317.50 580.08   Q 333.39 499.38 384.55 435.13   Q 394.13 423.09 410.55 406.19   Q 411.88 404.81 415.10 402.07   C 417.19 400.29 419.07 398.26 421.11 396.43   Q 475.32 347.61 545.30 325.51   C 545.80 325.35 546.23 325.42 546.73 325.25   Z"/>
    <path fill="#ffb11b" d="   M 377.24 561.64   Q 377.45 560.91 377.67 560.22   Q 395.84 502.71 435.57 457.88   Q 464.41 425.34 501.53 403.37   Q 551.07 374.04 606.71 366.54   Q 617.59 365.07 628.87 364.61   Q 630.74 364.54 632.52 364.32   C 634.80 364.04 637.09 364.44 639.41 363.94   Q 641.43 363.51 643.51 363.69   Q 644.05 363.73 643.99 364.27   C 643.69 366.70 644.46 368.82 644.46 371.24   Q 644.47 377.81 644.48 384.36   C 644.48 386.44 643.78 388.24 643.99 390.22   Q 644.06 390.87 643.41 390.87   Q 594.57 391.16 549.38 409.63   Q 509.38 425.99 477.24 454.46   Q 475.01 456.44 472.74 458.50   Q 466.40 464.23 460.39 470.71   Q 423.22 510.80 405.99 560.78   Q 402.63 570.55 399.67 580.37   Q 398.64 583.80 395.08 585.98   Q 386.47 591.24 378.63 584.58   Q 375.66 582.05 374.44 578.27   Q 373.48 575.30 374.54 571.37   Q 375.99 565.95 377.24 561.64   Z"/>
    <path fill="white" d="   M 177.79 658.51   Q 175.30 669.34 169.98 677.81   Q 156.01 700.08 131.59 707.75   Q 126.90 709.22 121.51 709.77   Q 119.16 710.00 116.93 710.43   Q 114.62 710.88 112.50 710.71   Q 109.42 710.47 106.61 709.34   Q 103.52 708.10 101.74 705.68   Q 95.46 697.15 101.63 688.28   C 103.45 685.67 106.36 684.10 109.37 683.26   Q 111.31 682.71 113.30 682.84   Q 118.77 683.19 123.41 681.69   Q 142.52 675.53 149.68 656.54   Q 150.57 654.16 150.99 651.58   C 151.34 649.40 151.83 647.34 151.82 645.11   Q 151.77 634.98 151.80 624.98   C 151.81 624.08 152.47 623.64 152.34 622.74   Q 152.13 621.21 152.49 619.84   C 153.37 616.49 152.39 613.07 153.15 609.67   Q 153.56 607.85 153.38 605.76   Q 153.23 604.09 153.68 602.27   Q 154.14 600.40 153.89 598.34   Q 153.82 597.77 154.06 597.24   C 154.76 595.73 154.31 593.95 154.52 592.26   Q 155.02 588.28 155.48 584.51   Q 166.23 495.13 207.96 415.19   Q 210.47 410.38 212.96 405.77   Q 215.90 400.31 218.83 395.88   Q 221.78 391.42 227.47 390.60   Q 236.17 389.34 241.23 396.25   Q 242.64 398.17 243.07 401.13   C 243.58 404.55 243.45 407.74 241.65 410.88   Q 220.81 447.21 206.93 485.85   Q 188.51 537.17 182.54 590.77   Q 181.63 599.03 180.89 607.56   Q 180.77 609.02 180.79 610.42   C 180.81 611.81 180.24 612.89 180.24 614.22   Q 180.24 619.50 180.23 624.82   Q 180.23 625.21 180.06 625.55   Q 179.96 625.77 179.86 625.99   Q 179.70 626.32 179.71 626.68   Q 179.83 631.81 179.64 636.55   C 179.60 637.65 179.19 638.33 179.20 639.38   Q 179.23 644.76 179.20 650.08   Q 179.20 650.44 179.01 650.76   Q 178.94 650.89 178.87 651.02   Q 178.78 651.20 178.77 651.40   Q 178.60 654.96 177.79 658.51   Z"/>
    <path fill="white" d="   M 423.32 593.57   Q 423.57 592.53 424.10 590.31   Q 437.57 533.87 477.21 490.47   Q 482.33 484.86 489.82 477.82   C 509.97 458.87 533.60 443.99 559.49 433.42   Q 590.05 420.93 622.55 418.05   Q 624.19 417.90 625.77 417.94   C 627.66 417.98 629.18 417.28 631.07 417.31   Q 637.45 417.40 644.07 417.35   A 0.41 0.41 0.0 0 1 644.48 417.76   L 644.48 444.30   A 0.46 0.46 0.0 0 1 644.02 444.76   Q 638.45 444.75 632.93 444.75   Q 631.01 444.74 629.13 445.13   Q 627.85 445.40 626.47 445.27   Q 625.26 445.16 623.96 445.42   Q 621.62 445.88 619.49 446.06   Q 616.38 446.32 615.01 446.55   Q 545.76 458.14 499.37 507.62   Q 464.05 545.28 451.25 596.24   Q 449.42 603.56 448.23 611.62   Q 447.11 619.19 446.43 626.99   Q 446.27 628.78 445.96 630.51   Q 445.69 632.03 445.69 633.69   Q 445.65 646.28 445.70 658.74   C 445.71 660.19 444.96 661.39 445.13 662.84   C 445.32 664.49 444.61 665.76 444.62 667.37   C 444.62 668.90 444.77 670.35 444.40 671.84   Q 444.01 673.42 444.00 675.28   Q 444.00 676.88 443.81 678.62   Q 443.23 683.92 442.47 689.59   Q 436.15 736.56 415.60 781.73   Q 409.72 794.64 402.77 807.05   Q 401.67 809.02 400.37 810.76   Q 395.41 817.38 388.68 817.24   Q 384.01 817.15 380.38 814.06   Q 376.73 810.95 375.36 805.87   Q 374.59 803.03 375.63 800.23   Q 376.89 796.84 378.84 793.29   C 383.19 785.37 387.29 777.22 390.78 769.59   Q 407.00 734.19 413.62 695.32   Q 415.94 681.70 416.86 668.39   Q 416.88 668.01 417.06 667.66   Q 417.17 667.46 417.25 667.24   Q 417.33 667.01 417.31 666.77   Q 417.00 663.19 417.44 659.66   Q 417.78 656.87 417.72 654.75   C 417.66 652.57 418.24 650.77 418.25 648.60   Q 418.29 638.23 418.26 628.08   Q 418.25 626.79 418.63 625.50   C 418.99 624.28 418.68 622.87 418.89 621.55   Q 419.38 618.49 419.75 615.43   C 419.87 614.46 419.60 613.18 419.98 612.34   Q 420.24 611.75 420.30 611.11   Q 421.22 602.29 423.32 593.57   Z"/>
    <path fill="white" d="   M 610.32 473.52   Q 617.81 471.74 626.29 471.11   Q 627.63 471.01 628.66 470.78   Q 629.80 470.53 630.91 470.53   Q 637.49 470.57 644.05 470.55   A 0.43 0.43 0.0 0 1 644.48 470.98   L 644.48 496.74   Q 644.48 497.26 643.97 497.36   Q 639.70 498.20 635.35 497.97   Q 633.73 497.89 632.26 498.28   C 630.88 498.66 629.41 498.39 627.94 498.59   Q 624.00 499.13 620.22 499.79   Q 595.91 504.00 574.53 515.63   Q 573.44 516.23 572.37 516.87   Q 565.26 521.12 558.70 517.67   Q 553.68 515.03 552.04 510.49   Q 550.04 504.94 552.35 499.43   C 553.33 497.10 555.77 494.45 557.90 493.24   Q 577.75 482.04 600.51 475.76   C 603.90 474.82 607.76 474.13 610.32 473.52   Z"/>
    <path fill="white" d="   M 610.91 528.20   Q 616.05 526.12 620.06 527.14   Q 626.47 528.76 629.68 535.18   Q 632.02 539.87 630.20 545.24   C 628.12 551.38 623.05 553.45 617.30 555.17   Q 591.75 562.84 574.41 583.26   Q 557.72 602.91 553.29 628.12   Q 552.98 629.85 552.81 631.59   Q 552.62 633.51 552.34 635.28   Q 551.97 637.59 552.03 639.73   Q 552.10 642.05 551.76 644.26   Q 551.11 648.52 551.80 652.47   Q 552.58 656.91 551.77 663.05   Q 551.50 665.12 551.55 666.97   Q 551.60 669.09 551.23 670.93   C 550.86 672.84 551.20 674.56 550.79 676.39   C 550.29 678.59 550.88 680.82 550.22 682.88   C 549.77 684.31 549.97 686.08 549.82 687.65   Q 543.52 752.53 516.90 815.89   C 514.60 821.35 511.61 824.00 506.03 825.54   Q 503.35 826.29 500.01 825.20   Q 492.66 822.80 490.09 814.97   Q 489.21 812.30 490.10 809.51   Q 491.48 805.16 493.07 801.31   Q 513.23 752.48 520.51 700.25   Q 521.45 693.53 522.11 686.54   Q 522.23 685.25 522.50 684.00   C 522.74 682.89 522.46 681.65 522.61 680.51   Q 523.67 672.48 523.67 665.14   C 523.66 663.72 524.14 662.64 524.20 661.25   Q 524.69 649.23 524.71 637.15   Q 524.72 632.22 525.50 627.90   Q 526.02 624.98 526.48 621.80   Q 526.91 618.73 527.64 615.73   Q 533.31 592.17 547.64 572.76   Q 556.31 561.01 567.09 551.81   Q 585.55 536.06 608.95 528.59   Q 609.44 528.43 609.93 528.41   A 2.95 2.89 32.3 0 0 610.91 528.20   Z"/>
    <path fill="#ffb11b" d="   M 238.24 981.05   Q 240.53 980.75 241.76 978.65   Q 248.25 976.35 254.72 973.52   Q 310.53 949.08 355.30 908.33   C 356.35 907.38 357.29 906.10 358.45 905.33   Q 359.26 904.80 359.95 904.14   C 398.96 866.41 429.20 821.14 448.30 770.65   Q 462.75 732.45 468.10 693.09   Q 470.88 672.73 471.70 649.76   C 471.74 648.65 471.85 647.89 471.66 646.76   C 471.52 645.89 472.01 645.28 472.01 644.38   Q 471.99 638.25 471.99 632.57   Q 471.99 629.84 472.28 627.13   Q 476.15 590.05 494.12 558.01   Q 497.27 552.40 503.06 550.64   Q 508.27 549.05 513.26 552.19   Q 518.10 555.23 519.72 561.01   C 520.53 563.89 519.99 566.95 518.50 569.57   Q 514.45 576.69 511.67 582.86   Q 501.54 605.33 499.01 630.37   Q 498.78 632.63 498.86 635.02   C 498.91 636.36 498.23 637.34 498.24 638.68   Q 498.36 650.15 498.21 660.96   Q 498.20 662.06 497.82 665.84   C 497.60 667.96 497.78 670.18 497.59 672.40   Q 497.18 677.27 496.71 682.02   Q 490.29 746.69 463.79 804.26   Q 439.02 858.07 401.45 900.18   Q 395.13 907.26 388.77 913.59   Q 382.43 919.89 375.88 926.45   Q 374.84 927.49 373.63 928.36   C 372.41 929.23 371.45 930.44 370.34 931.43   Q 319.10 977.22 254.83 1002.67   Q 251.91 1003.82 249.29 1004.12   C 245.75 1004.53 242.18 1004.10 239.20 1002.05   Q 237.65 1000.97 236.57 999.48   Q 231.32 992.14 236.45 983.20   Q 237.40 981.54 238.24 981.05   Z"/>
    <path fill="white" d="   M 561.26 765.51   Q 562.32 761.73 565.92 746.73   Q 574.15 712.38 576.27 676.99   Q 576.30 676.56 576.69 673.57   C 576.96 671.45 576.58 669.36 577.08 667.19   Q 577.51 665.32 577.28 663.47   A 1.51 1.48 57.1 0 1 577.47 662.54   Q 577.90 661.81 577.89 660.88   Q 577.68 648.41 577.94 638.37   Q 578.04 634.12 579.65 627.56   Q 581.06 621.80 582.87 617.56   Q 587.81 605.98 596.09 597.66   C 596.64 597.10 596.72 596.19 597.54 595.79   C 599.10 595.04 600.01 593.68 601.30 592.60   Q 615.84 580.29 634.72 577.17   C 636.61 576.86 638.37 577.21 640.22 576.67   Q 641.92 576.18 643.55 576.57   A 1.21 1.21 0.0 0 1 644.48 577.75   L 644.48 602.73   Q 644.48 603.57 643.65 603.63   Q 624.83 605.15 613.03 620.25   Q 608.78 625.68 606.47 633.18   Q 604.93 638.17 605.15 643.85   Q 605.38 649.95 605.17 656.37   Q 605.16 656.80 604.94 657.16   Q 604.72 657.51 604.72 657.91   Q 604.74 664.55 604.72 670.95   Q 604.71 671.45 604.52 671.85   Q 604.31 672.29 604.30 672.79   Q 604.16 679.07 603.65 685.06   Q 595.09 786.62 546.73 877.07   Q 519.60 927.80 481.39 970.60   Q 480.41 971.69 479.39 972.69   C 478.04 973.99 477.24 975.57 475.87 976.83   C 472.18 980.21 468.70 984.44 465.72 987.42   Q 458.64 994.49 451.56 1001.57   C 451.12 1002.01 450.61 1002.11 450.17 1002.56   Q 445.59 1007.12 440.55 1011.59   Q 402.95 1044.95 359.38 1070.36   Q 346.23 1078.03 334.35 1083.76   Q 332.39 1084.71 329.62 1084.82   C 323.65 1085.04 318.74 1081.60 316.52 1076.06   C 315.92 1074.55 316.16 1073.20 315.61 1071.72   Q 315.41 1071.17 315.56 1070.60   C 316.17 1068.38 316.00 1066.23 317.25 1064.19   Q 319.42 1060.66 322.68 1058.93   Q 374.96 1031.05 420.37 990.75   Q 427.51 984.41 433.81 978.13   A 1.79 1.65 -76.5 0 1 434.30 977.80   Q 434.66 977.65 434.94 977.38   Q 446.02 966.39 456.53 954.79   Q 531.19 872.38 561.26 765.51   Z"/>
    <path fill="#ffb11b" d="   M 620.01 752.11   Q 625.43 727.05 628.48 698.03   Q 630.13 682.32 630.54 667.48   Q 630.57 666.65 630.84 665.90   Q 631.02 665.42 630.79 664.96   Q 630.48 664.34 630.87 663.71   A 1.32 1.29 -29.8 0 0 631.08 662.97   Q 630.83 652.55 631.32 643.19   Q 631.55 638.81 632.99 636.61   C 635.44 632.88 639.16 630.98 643.40 629.77   Q 643.96 629.61 643.96 630.19   Q 643.96 636.52 643.92 642.80   Q 643.92 643.62 644.24 644.32   Q 644.44 644.77 644.44 645.25   Q 644.49 703.35 644.46 761.06   C 644.46 765.76 640.94 767.80 637.08 769.30   Q 634.16 770.44 631.58 770.08   C 624.62 769.10 617.79 762.32 619.44 754.72   Q 619.73 753.38 620.01 752.11   Z"/>
    <path fill="white" d="   M 140.89 760.30   Q 135.17 761.77 128.15 762.99   Q 122.98 763.89 119.21 762.47   Q 114.01 760.52 111.44 755.35   Q 109.08 750.61 110.58 745.80   Q 112.04 741.14 116.03 738.15   Q 119.62 735.46 124.97 735.62   Q 125.41 735.63 125.81 735.41   Q 126.18 735.20 126.61 735.13   Q 152.66 730.84 172.26 714.06   Q 197.31 692.63 203.81 659.50   C 204.05 658.31 203.75 656.91 204.28 655.93   Q 204.54 655.45 204.49 654.91   C 204.29 652.84 204.96 651.10 205.01 649.10   C 205.08 646.02 204.56 642.75 205.61 639.80   Q 208.24 632.43 215.09 630.29   Q 219.75 628.84 224.26 630.96   Q 229.15 633.26 231.36 637.86   Q 232.65 640.52 232.45 644.04   C 232.28 647.26 232.92 651.32 232.07 654.28   Q 231.61 655.90 231.89 657.64   Q 231.98 658.19 231.72 658.69   C 231.14 659.84 231.42 660.91 231.21 662.12   Q 230.03 669.10 229.56 671.00   Q 222.46 699.74 202.95 722.45   Q 199.00 727.05 194.97 730.72   Q 191.57 733.83 188.22 736.57   Q 167.59 753.45 140.89 760.30   Z"/>
    <path fill="white" d="   M 193.14 883.19   Q 245.13 866.85 284.53 829.74   C 290.25 824.36 296.08 818.55 301.15 812.74   Q 345.03 762.42 359.20 696.94   Q 360.67 690.14 362.00 681.03   Q 363.19 672.89 363.93 665.00   C 364.23 661.74 363.78 656.40 364.32 652.06   Q 364.61 649.77 364.53 647.44   C 364.46 644.96 364.95 642.58 365.44 640.17   C 366.30 635.92 369.62 632.50 373.52 630.78   C 378.64 628.51 383.05 630.06 387.57 633.04   C 390.41 634.91 392.21 639.81 392.37 642.72   C 392.56 646.28 392.90 651.22 392.12 654.99   C 391.77 656.68 392.14 658.21 391.74 659.98   C 391.16 662.61 391.71 665.16 391.14 667.88   Q 390.73 669.87 390.94 672.06   Q 390.98 672.46 390.87 672.83   Q 390.48 674.09 390.34 675.40   Q 387.69 701.39 379.45 727.48   Q 360.46 787.61 318.47 833.50   Q 316.82 835.31 315.00 837.09   C 312.97 839.08 311.50 841.54 309.14 843.34   Q 307.23 844.80 306.29 845.76   Q 299.21 853.01 291.14 859.63   Q 245.35 897.22 188.32 913.17   Q 186.12 913.78 184.24 913.76   C 182.25 913.75 180.25 913.97 178.29 913.31   Q 171.89 911.13 169.52 903.91   C 169.27 903.13 169.43 902.53 169.05 901.70   Q 168.83 901.22 168.86 900.69   Q 169.28 893.46 174.78 889.04   Q 177.17 887.11 181.82 886.14   Q 187.54 884.95 193.14 883.19   Z"/>
    <path fill="white" d="   M 946.57 671.24   L 921.39 646.05   A 0.20 0.20 0.0 0 1 921.53 645.70   L 958.19 645.70   Q 958.72 645.70 959.09 646.08   L 973.02 659.97   A 1.45 1.43 -67.8 0 1 973.44 660.99   L 973.44 1082.45   Q 973.44 1082.96 973.07 1083.32   Q 967.66 1088.62 961.28 1092.80   Q 954.18 1097.45 947.59 1102.19   A 0.19 0.19 0.0 0 1 947.30 1102.08   Q 947.07 1101.25 947.07 1100.37   Q 947.02 1052.05 947.07 1002.94   C 947.07 1002.45 946.89 1002.18 946.68 1001.78   Q 946.55 1001.53 946.55 1001.24   Q 946.58 885.00 946.55 768.75   C 946.55 768.00 947.04 767.13 947.04 766.19   Q 947.06 721.90 947.07 672.45   Q 947.07 671.74 946.57 671.24   Z"/>
    <path fill="white" d="   M 1001.18 649.96   L 997.39 646.20   A 0.30 0.30 0.0 0 1 997.60 645.69   L 1027.88 645.71   A 0.30 0.30 0.0 0 1 1028.18 646.01   L 1028.18 1036.88   A 0.30 0.30 0.0 0 1 1028.08 1037.10   L 1001.78 1061.29   A 0.30 0.30 0.0 0 1 1001.28 1061.07   L 1001.27 650.18   A 0.30 0.30 0.0 0 0 1001.18 649.96   Z"/>
    <path fill="white" d="   M 782.82 1168.07   C 782.79 1167.12 782.32 1166.57 782.32 1165.68   Q 782.31 1156.01 782.32 1146.34   Q 782.32 1143.82 782.74 1141.25   Q 783.15 1138.74 782.73 1136.17   A 1.15 1.09 -73.5 0 0 782.42 1135.56   L 673.76 1027.30   A 3.00 2.96 22.6 0 1 672.87 1025.18   L 672.88 646.29   Q 672.88 645.70 673.46 645.70   L 699.09 645.70   Q 699.73 645.70 699.73 646.34   L 699.73 1013.96   A 3.11 3.09 22.7 0 0 700.64 1016.15   Q 755.26 1070.97 804.90 1120.35   Q 805.85 1121.29 806.93 1122.22   Q 808.41 1123.48 809.18 1125.24   Q 809.80 1126.66 809.79 1128.52   Q 809.67 1143.31 809.76 1157.79   Q 809.77 1158.39 809.50 1158.94   Q 809.10 1159.74 809.16 1160.51   Q 809.48 1164.61 808.47 1168.21   Q 808.35 1168.64 807.92 1168.76   L 783.97 1175.78   A 0.89 0.88 -7.3 0 1 782.84 1174.91   Q 782.92 1171.49 782.82 1168.07   Z"/>
    <path fill="white" d="   M 809.20 972.35   L 917.79 1080.97   A 1.51 1.50 -63.2 0 1 918.21 1082.27   C 917.89 1084.43 918.72 1086.18 918.72 1088.30   Q 918.71 1103.74 918.69 1119.09   A 2.09 2.07 -14.2 0 1 917.59 1120.92   L 892.75 1134.27   A 0.32 0.31 76.3 0 1 892.29 1133.99   L 892.33 1095.36   A 3.94 3.91 22.8 0 0 891.19 1092.60   L 783.27 984.66   Q 782.87 984.26 782.87 983.70   C 782.88 981.98 782.31 980.60 782.31 978.83   Q 782.32 874.52 782.32 770.40   Q 782.32 769.84 782.49 769.32   Q 782.82 768.33 782.83 767.36   Q 782.91 756.71 782.81 744.81   Q 782.79 743.11 782.27 741.06   Q 781.86 739.47 780.64 738.25   Q 756.18 713.77 731.71 689.31   C 730.72 688.32 729.03 686.96 727.92 685.44   Q 727.61 685.02 727.61 684.50   L 727.62 646.30   Q 727.62 645.72 728.20 645.72   L 754.09 645.70   Q 754.48 645.70 754.48 646.09   L 754.49 673.72   A 2.54 2.53 23.0 0 0 755.21 675.49   Q 760.89 681.22 766.76 687.16   C 768.44 688.86 770.51 690.30 772.00 692.15   Q 772.91 693.27 774.03 694.21   Q 775.42 695.38 776.57 696.70   Q 777.74 698.03 779.00 699.24   Q 791.96 711.65 806.92 726.82   C 807.95 727.87 808.72 729.03 808.72 730.56   Q 808.71 851.28 808.69 971.13   Q 808.69 971.84 809.20 972.35   Z"/>
    <path fill="#ffb11b" d="   M 807.25 688.39   Q 795.26 676.39 783.25 664.36   Q 782.87 663.98 782.87 663.45   L 782.87 646.30   Q 782.87 645.73 783.45 645.73   L 807.55 645.72   Q 808.12 645.72 808.13 646.30   L 808.17 689.04   A 0.28 0.27 31.6 0 1 807.65 689.16   Q 807.58 689.02 807.53 688.85   Q 807.45 688.58 807.25 688.39   Z"/>
    <path fill="white" d="   M 837.07 962.34   L 837.06 646.23   A 0.53 0.53 0.0 0 1 837.59 645.70   L 863.45 645.70   A 0.53 0.53 0.0 0 1 863.98 646.23   L 863.98 988.19   A 0.53 0.53 0.0 0 1 863.08 988.57   L 837.23 962.72   A 0.53 0.53 0.0 0 1 837.07 962.34   Z"/>
    <path fill="#ffb11b" d="   M 1057.08 739.11   L 1057.07 646.06   A 0.33 0.33 0.0 0 1 1057.40 645.73   L 1081.98 645.72   A 0.33 0.33 0.0 0 1 1082.31 646.05   L 1082.32 714.51   A 0.33 0.33 0.0 0 1 1082.22 714.75   L 1057.64 739.35   A 0.33 0.33 0.0 0 1 1057.08 739.11   Z"/>
    <path fill="white" d="   M 1082.70 790.74   A 1.17 1.13 -23.2 0 0 1082.36 791.55   L 1082.41 974.32   Q 1082.41 974.85 1082.11 975.29   Q 1080.84 977.14 1077.35 981.59   Q 1067.91 993.63 1058.07 1005.03   Q 1056.54 1006.80 1056.54 1004.47   L 1056.53 779.72   A 1.23 1.20 -23.0 0 1 1056.89 778.86   L 1110.40 725.31   Q 1110.76 724.95 1110.76 724.44   L 1110.76 646.22   Q 1110.75 645.70 1111.28 645.70   L 1136.95 645.71   Q 1137.63 645.71 1137.63 646.39   L 1137.63 735.32   Q 1137.63 735.80 1137.29 736.14   L 1082.70 790.74   Z"/>
    <path fill="white" d="   M 1170.65 798.74   Q 1169.49 803.05 1168.11 807.13   Q 1167.61 808.62 1166.93 809.53   Q 1166.01 810.78 1166.01 809.22   L 1166.02 646.34   Q 1166.02 645.71 1166.66 645.71   L 1191.72 645.69   Q 1192.32 645.69 1192.32 646.30   Q 1192.31 650.26 1192.36 654.05   C 1192.38 654.81 1191.83 655.28 1191.83 656.12   C 1191.80 661.36 1192.15 666.98 1191.51 672.29   Q 1191.16 675.17 1191.31 678.29   C 1191.44 680.93 1190.62 683.19 1190.76 685.89   Q 1190.84 687.49 1190.67 689.08   Q 1190.16 693.78 1189.84 698.31   Q 1189.73 699.78 1189.46 701.23   C 1189.10 703.12 1189.45 704.76 1188.92 706.69   C 1188.65 707.69 1188.70 709.00 1188.58 710.10   Q 1185.89 733.67 1179.98 761.74   Q 1176.86 776.53 1172.98 790.30   Q 1171.83 794.38 1170.65 798.74   Z"/>
    <path fill="#ffb11b" d="   M 892.32 1017.14   L 892.34 656.26   A 0.30 0.30 0.0 0 1 892.85 656.04   L 918.04 680.84   A 0.30 0.30 0.0 0 1 918.13 681.06   L 918.13 1042.38   A 0.30 0.30 0.0 0 1 917.62 1042.59   L 892.41 1017.35   A 0.30 0.30 0.0 0 1 892.32 1017.14   Z"/>
    <path fill="white" d="   M 836.53 1113.88   L 727.95 1005.29   A 1.14 1.12 -67.7 0 1 727.62 1004.49   L 727.62 725.22   A 0.41 0.40 17.4 0 1 728.26 724.89   Q 730.54 726.47 732.42 728.32   Q 742.95 738.68 752.66 748.51   Q 754.48 750.36 754.48 752.95   L 754.48 992.74   Q 754.48 994.10 755.44 995.06   Q 802.17 1041.81 849.18 1088.82   C 849.68 1089.32 850.38 1089.51 850.93 1090.06   Q 857.25 1096.35 863.51 1102.60   Q 863.98 1103.07 863.98 1103.74   L 863.98 1147.00   Q 863.98 1147.76 863.28 1148.07   Q 855.92 1151.32 848.24 1154.41   Q 843.12 1156.48 838.06 1158.00   Q 837.06 1158.31 837.06 1157.26   L 837.06 1115.18   Q 837.06 1114.42 836.53 1113.88   Z"/>
    <path fill="#ffb11b" d="   M 1111.27 930.21   L 1111.27 801.09   A 0.73 0.73 0.0 0 1 1111.49 800.58   L 1136.38 775.84   A 0.73 0.73 0.0 0 1 1137.62 776.36   L 1137.60 884.83   A 0.73 0.73 0.0 0 1 1137.51 885.18   L 1112.64 930.56   A 0.73 0.73 0.0 0 1 1111.27 930.21   Z"/>
    <path fill="#ffb11b" d="   M 264.72 780.79   C 265.40 781.14 266.13 780.84 266.72 781.08   Q 276.04 784.86 276.52 793.63   Q 276.69 796.86 275.10 799.82   C 273.02 803.68 269.07 807.27 265.85 810.23   Q 223.70 848.87 167.45 863.44   Q 159.93 865.39 156.22 864.45   Q 148.46 862.50 146.53 854.61   C 145.91 852.05 145.73 847.29 147.63 844.93   C 148.54 843.81 148.64 842.56 149.84 841.62   Q 153.08 839.07 157.05 838.13   Q 211.54 825.28 251.75 786.25   Q 253.50 784.56 255.81 782.97   C 257.69 781.67 262.39 779.59 264.72 780.79   Z"/>
    <path fill="white" d="   M 392.22 946.25   C 395.55 942.97 398.64 939.64 402.37 936.64   C 404.65 934.80 406.35 932.34 408.36 930.28   Q 440.31 897.43 463.63 859.14   Q 466.32 854.73 468.83 853.04   Q 472.22 850.76 476.63 850.61   Q 481.33 850.46 484.87 853.50   Q 488.59 856.71 490.01 861.49   Q 490.79 864.12 490.19 866.82   Q 489.64 869.24 488.11 871.77   Q 457.78 921.95 415.46 962.19   Q 413.94 963.63 412.31 965.04   C 410.24 966.81 408.58 968.90 406.35 970.51   C 404.92 971.55 403.80 973.04 402.41 974.21   Q 392.87 982.26 387.32 986.72   Q 346.27 1019.70 297.98 1042.22   Q 294.57 1043.81 290.72 1045.28   Q 286.16 1047.02 282.69 1046.37   Q 276.81 1045.26 273.47 1039.38   Q 270.38 1033.94 272.70 1027.96   C 274.46 1023.44 276.90 1021.52 281.34 1019.54   Q 339.39 993.66 387.10 950.76   Q 387.98 949.97 388.79 949.12   C 389.89 947.97 391.12 947.33 392.22 946.25   Z"/>
    <path fill="white" d="   M 439.77 1112.33   C 440.67 1111.74 441.35 1111.03 442.22 1110.40   Q 467.01 1092.46 489.57 1072.33   Q 495.98 1066.60 502.18 1060.45   C 502.71 1059.92 503.32 1059.84 503.86 1059.30   Q 512.74 1050.42 521.60 1041.53   Q 522.89 1040.24 526.05 1036.66   C 527.99 1034.46 530.14 1032.50 532.13 1030.28   Q 535.24 1026.82 538.33 1023.34   Q 606.02 947.03 643.67 854.02   A 0.38 0.38 0.0 0 1 644.07 853.79   Q 644.23 853.81 644.36 853.93   Q 644.48 854.04 644.48 854.20   Q 644.46 885.52 644.51 916.95   Q 644.51 919.32 643.47 921.46   Q 642.20 924.05 640.84 926.60   Q 607.15 989.63 559.41 1042.87   C 558.19 1044.22 556.69 1045.48 555.71 1046.94   C 554.24 1049.12 551.88 1050.84 550.20 1052.88   Q 548.47 1054.98 546.52 1056.93   Q 535.71 1067.73 525.71 1077.71   Q 524.75 1078.68 521.76 1081.23   C 519.97 1082.75 518.30 1084.70 516.63 1086.13   Q 512.69 1089.53 508.51 1093.26   Q 491.52 1108.44 472.03 1123.20   Q 458.51 1133.43 445.54 1141.49   C 441.28 1144.14 434.73 1145.50 430.32 1142.63   Q 426.05 1139.85 424.40 1134.95   C 423.75 1132.99 423.70 1128.89 424.26 1126.88   Q 425.43 1122.62 428.46 1120.27   Q 432.99 1116.74 439.77 1112.33   Z"/>
    <path fill="white" d="   M 268.32 938.12   Q 266.82 938.91 265.28 939.73   Q 248.22 948.79 227.03 956.56   Q 223.05 958.02 218.75 959.32   Q 217.50 959.69 216.20 959.72   Q 215.26 959.75 214.47 960.15   Q 213.97 960.40 213.45 960.21   C 212.04 959.70 210.60 959.77 209.22 959.19   Q 201.11 955.78 200.29 947.62   Q 199.82 942.96 202.28 939.27   Q 204.86 935.39 209.51 933.71   Q 219.30 930.18 227.94 926.63   Q 276.28 906.78 314.85 872.51   C 317.89 869.81 320.56 866.92 323.54 864.30   C 326.58 861.62 329.16 858.91 332.79 856.86   C 334.91 855.66 340.42 855.47 342.66 856.23   Q 345.93 857.33 348.29 860.29   Q 352.72 865.83 351.48 872.89   Q 350.98 875.76 349.14 877.67   Q 314.17 914.04 268.32 938.12   Z"/>
    <path fill="white" d="   M 597.10 895.08   C 591.91 905.02 586.56 914.74 580.93 924.18   Q 556.91 964.44 525.21 1001.22   Q 516.47 1011.36 508.00 1020.05   Q 504.86 1023.27 501.77 1026.69   Q 497.47 1031.44 492.85 1035.41   C 489.54 1038.26 486.60 1041.94 483.07 1044.72   C 480.90 1046.42 479.26 1048.71 476.99 1050.26   Q 476.09 1050.87 475.25 1051.69   Q 474.44 1052.49 473.60 1053.24   Q 451.59 1072.90 424.95 1091.45   Q 410.63 1101.42 395.70 1110.66   Q 388.05 1115.39 381.71 1117.39   Q 376.72 1118.96 372.14 1115.76   Q 368.29 1113.08 366.32 1108.07   C 364.53 1103.50 366.65 1098.78 369.21 1095.02   Q 370.45 1093.20 373.69 1091.48   Q 417.85 1068.09 457.19 1034.19   Q 461.93 1030.10 467.04 1025.52   Q 470.12 1022.76 472.93 1019.94   Q 474.89 1017.96 476.89 1016.20   C 480.97 1012.61 484.74 1008.71 488.60 1004.85   Q 488.94 1004.52 489.08 1004.09   Q 489.25 1003.62 489.60 1003.28   Q 493.57 999.47 499.93 992.43   Q 544.80 942.83 574.44 883.46   Q 578.15 876.02 586.39 875.14   Q 586.87 875.09 587.31 875.30   C 588.21 875.72 589.24 875.43 590.28 875.74   Q 595.52 877.32 597.73 882.40   C 599.64 886.79 599.38 890.71 597.10 895.08   Z"/>
    <path fill="white" d="   M 241.76 978.65   Q 240.53 980.75 238.24 981.05   Q 239.60 979.17 241.76 978.65   Z"/>
    <path fill="#ffb11b" d="   M 577.70 1066.49   Q 577.84 1066.11 578.12 1065.82   Q 595.89 1047.26 611.21 1028.16   Q 613.03 1025.90 615.33 1023.60   C 620.23 1018.69 626.52 1017.32 632.20 1022.34   Q 636.98 1026.58 636.09 1032.87   Q 635.49 1037.14 631.02 1044.68   C 625.94 1053.24 619.27 1060.43 612.78 1067.94   Q 608.25 1073.17 603.25 1078.18   C 596.48 1084.94 589.83 1091.99 582.66 1098.30   C 580.60 1100.11 578.70 1102.21 576.64 1104.08   Q 571.87 1108.39 566.76 1113.00   Q 540.34 1136.87 510.89 1160.16   Q 508.75 1161.86 506.29 1163.45   C 501.80 1166.36 496.37 1170.56 490.64 1168.20   Q 484.86 1165.81 482.27 1159.41   Q 480.04 1153.92 482.62 1148.91   Q 483.88 1146.45 488.85 1142.95   Q 535.29 1110.19 575.22 1068.89   C 575.87 1068.23 576.04 1067.43 577.00 1067.14   Q 577.51 1066.98 577.70 1066.49   Z"/>
    <path fill="white" d="   M 699.73 1091.61   L 699.74 1190.20   A 0.54 0.54 0.0 0 1 699.25 1190.73   L 673.47 1192.99   A 0.54 0.54 0.0 0 1 672.88 1192.45   L 672.87 1065.53   A 0.54 0.54 0.0 0 1 673.79 1065.15   L 699.57 1091.23   A 0.54 0.54 0.0 0 1 699.73 1091.61   Z"/>
    <path fill="white" d="   M 549.29 1171.63   Q 548.71 1169.05 549.16 1167.03   Q 550.59 1160.56 556.29 1156.40   Q 558.33 1154.91 560.30 1153.19   Q 565.29 1148.83 569.75 1145.07   C 571.31 1143.76 572.59 1142.10 574.27 1141.00   C 576.22 1139.72 577.64 1137.71 579.47 1136.27   C 582.66 1133.76 585.22 1130.65 588.17 1128.01   Q 591.39 1125.13 593.71 1122.85   Q 598.42 1118.21 603.55 1112.81   Q 604.17 1112.16 604.76 1111.51   Q 607.48 1108.57 610.39 1105.66   Q 611.93 1104.11 613.72 1101.99   C 615.59 1099.78 617.60 1098.11 619.43 1095.70   C 620.37 1094.47 621.77 1093.21 622.64 1092.22   Q 633.39 1080.04 643.66 1067.44   Q 644.48 1066.44 644.48 1067.74   L 644.49 1106.45   Q 644.49 1106.99 644.14 1107.40   Q 635.53 1117.55 630.82 1122.47   Q 630.10 1123.23 629.53 1123.97   C 627.67 1126.41 625.19 1128.39 623.16 1130.68   Q 619.81 1134.45 618.39 1135.87   Q 610.79 1143.46 603.02 1151.28   C 602.45 1151.86 601.63 1152.10 601.04 1152.68   C 598.11 1155.59 595.33 1158.68 592.12 1161.27   C 589.85 1163.11 588.10 1165.43 585.71 1167.21   Q 583.88 1168.56 582.46 1170.29   C 581.64 1171.27 580.61 1171.51 579.78 1172.39   Q 576.90 1175.47 572.92 1178.46   C 569.48 1181.06 565.00 1183.57 560.58 1182.73   Q 554.88 1181.63 551.32 1176.43   Q 549.91 1174.36 549.29 1171.63   Z"/>
    <path fill="#ffb11b" d="   M 753.95 1146.16   L 753.95 1181.76   A 0.78 0.78 0.0 0 1 753.30 1182.53   L 728.55 1186.78   A 0.78 0.78 0.0 0 1 727.64 1186.02   L 727.59 1121.32   A 0.78 0.78 0.0 0 1 728.92 1120.77   L 753.72 1145.61   A 0.78 0.78 0.0 0 1 753.95 1146.16   Z"/>
    <path fill="white" d="   M 639.87 1150.05   Q 641.68 1147.98 643.81 1146.23   A 0.41 0.41 0.0 0 1 644.48 1146.54   L 644.48 1185.20   Q 644.48 1185.66 644.13 1185.97   Q 639.96 1189.65 635.49 1192.18   C 632.79 1193.71 629.38 1194.82 626.21 1193.74   Q 620.16 1191.68 617.64 1186.92   Q 614.79 1181.54 616.66 1175.54   Q 617.56 1172.67 620.98 1169.32   Q 628.77 1161.68 636.25 1154.11   Q 636.89 1153.46 639.87 1150.05   Z"/>
    <path fill="white" d="   M 1104.09 1438.69   C 1104.44 1438.85 1104.76 1438.96 1105.04 1439.24   Q 1117.61 1451.87 1130.17 1464.41   C 1130.69 1464.93 1131.35 1465.02 1131.89 1465.57   Q 1145.63 1479.38 1159.37 1493.11   C 1162.95 1496.68 1166.92 1499.71 1170.19 1503.57   A 0.36 0.36 0.0 0 1 1169.92 1504.16   Q 1162.69 1504.22 1155.75 1504.16   C 1155.01 1504.15 1154.05 1504.74 1153.02 1504.74   Q 1138.38 1504.69 1124.22 1504.72   Q 1122.30 1504.72 1120.30 1504.33   Q 1118.64 1504.01 1116.97 1504.17   Q 1116.41 1504.23 1115.96 1503.89   Q 1110.30 1499.61 1107.62 1496.49   Q 1104.90 1493.35 1101.74 1490.15   Q 1101.32 1489.73 1100.74 1489.74   Q 1098.22 1489.76 1095.80 1490.65   Q 1092.57 1491.84 1089.25 1493.02   Q 1085.99 1494.17 1082.48 1494.92   Q 1071.92 1497.17 1066.05 1497.35   Q 1058.28 1497.60 1050.19 1497.46   Q 1048.96 1497.44 1047.83 1497.11   C 1046.71 1496.78 1045.38 1497.01 1044.15 1496.82   Q 1018.39 1492.85 998.40 1478.54   Q 981.23 1466.25 970.18 1447.81   Q 967.11 1442.68 964.22 1436.43   Q 961.43 1430.39 959.75 1424.51   Q 957.69 1417.34 956.06 1408.61   Q 955.69 1406.67 955.86 1405.18   Q 955.91 1404.71 955.73 1404.28   C 955.52 1403.75 955.30 1403.48 955.31 1402.88   Q 955.33 1396.66 955.31 1390.90   Q 955.29 1386.94 955.93 1382.27   Q 956.45 1378.47 957.14 1374.64   Q 960.38 1356.67 970.39 1340.75   Q 987.98 1312.82 1018.24 1299.47   Q 1035.86 1291.70 1055.15 1291.86   C 1055.69 1291.86 1055.87 1291.71 1056.33 1291.48   Q 1056.60 1291.34 1056.90 1291.34   C 1059.69 1291.31 1062.25 1291.17 1065.01 1291.68   Q 1067.38 1292.11 1069.86 1291.81   Q 1070.26 1291.76 1070.63 1291.92   Q 1071.53 1292.30 1072.55 1292.42   Q 1085.39 1293.87 1098.94 1299.77   Q 1117.16 1307.71 1131.04 1321.32   Q 1133.11 1323.35 1135.04 1325.63   Q 1136.33 1327.15 1137.62 1328.60   Q 1139.04 1330.20 1140.22 1331.81   Q 1147.76 1342.02 1152.17 1351.69   Q 1157.00 1362.29 1159.67 1375.53   Q 1160.29 1378.59 1160.63 1381.76   Q 1160.87 1383.98 1161.13 1386.10   C 1161.69 1390.57 1161.38 1395.22 1161.39 1399.83   Q 1161.39 1401.23 1161.02 1402.44   C 1160.66 1403.61 1160.92 1405.01 1160.77 1406.29   Q 1158.97 1422.39 1152.17 1437.48   Q 1151.90 1438.06 1151.26 1438.06   Q 1139.92 1437.98 1128.94 1438.05   C 1127.67 1438.06 1126.72 1438.57 1125.41 1438.57   Q 1121.77 1438.58 1117.95 1438.55   Q 1116.96 1438.54 1111.08 1438.07   Q 1107.63 1437.78 1104.17 1438.19   Q 1103.23 1438.30 1104.09 1438.69   Z   M 1050.75 1437.13   L 1102.06 1437.67   Q 1102.60 1437.67 1102.98 1437.29   Q 1107.53 1432.78 1110.92 1426.73   Q 1120.77 1409.18 1119.57 1389.24   Q 1119.08 1380.94 1116.33 1373.68   Q 1113.24 1365.48 1108.00 1358.19   Q 1102.72 1350.86 1096.15 1345.94   Q 1081.74 1335.16 1063.90 1333.39   C 1060.68 1333.08 1057.52 1333.24 1054.29 1333.20   Q 1052.30 1333.17 1050.25 1333.53   Q 1048.30 1333.88 1046.27 1334.29   Q 1030.36 1337.49 1018.17 1348.17   Q 1000.38 1363.75 997.30 1387.20   C 997.10 1388.69 997.40 1390.25 997.03 1391.64   Q 996.61 1393.24 996.70 1394.89   Q 997.04 1401.15 997.88 1405.36   Q 1004.48 1438.22 1035.25 1451.59   Q 1040.91 1454.04 1049.61 1455.51   C 1050.56 1455.67 1051.63 1455.41 1052.43 1455.72   Q 1053.26 1456.06 1054.13 1456.10   Q 1060.08 1456.42 1065.85 1455.41   A 0.10 0.10 0.0 0 0 1065.90 1455.24   Q 1059.46 1449.12 1053.08 1442.54   C 1051.96 1441.38 1051.34 1440.02 1050.08 1438.97   Q 1047.82 1437.10 1050.75 1437.13   Z"/>
    <path fill="white" d="   M 921.10 1294.67   L 922.46 1496.74   A 0.81 0.81 0.0 0 1 921.67 1497.55   L 881.75 1498.16   A 0.81 0.81 0.0 0 1 880.92 1497.35   L 879.44 1307.72   A 0.81 0.81 0.0 0 1 880.00 1306.95   L 920.04 1293.90   A 0.81 0.81 0.0 0 1 921.10 1294.67   Z"/>
    <path fill="white" d="   M 803.59 1421.78   Q 803.13 1422.00 803.42 1422.43   Q 808.70 1430.25 813.49 1437.00   Q 827.90 1457.30 842.06 1477.13   Q 848.62 1486.32 855.95 1497.27   A 0.43 0.43 0.0 0 1 855.60 1497.94   Q 849.47 1498.02 843.58 1497.98   Q 843.12 1497.97 842.42 1498.13   Q 841.36 1498.37 840.46 1498.38   Q 824.17 1498.57 807.32 1498.48   Q 806.82 1498.47 806.56 1498.05   Q 806.42 1497.82 806.28 1497.62   Q 786.57 1469.85 765.84 1440.17   Q 762.72 1435.70 759.69 1431.73   C 758.78 1430.54 758.05 1429.06 758.05 1427.48   Q 758.05 1422.49 758.05 1417.55   Q 758.05 1417.26 757.92 1417.00   Q 757.85 1416.87 757.75 1416.75   A 1.03 1.01 26.6 0 1 757.53 1416.12   Q 757.55 1407.81 757.53 1399.23   C 757.52 1397.36 758.53 1396.04 757.81 1394.13   C 757.30 1392.77 757.48 1391.07 757.69 1389.64   Q 757.78 1389.04 758.39 1389.02   C 760.01 1388.97 761.55 1389.05 763.20 1388.80   Q 767.38 1388.18 771.89 1388.56   C 772.34 1388.60 772.67 1388.42 773.03 1388.21   Q 773.25 1388.08 773.50 1388.05   C 781.20 1387.31 787.06 1385.50 792.59 1380.56   Q 795.58 1377.88 797.30 1374.40   Q 800.67 1367.63 799.86 1358.26   C 799.38 1352.73 798.38 1347.27 794.46 1343.22   Q 788.94 1337.50 780.77 1335.45   C 779.82 1335.22 778.79 1335.42 777.98 1334.91   Q 777.53 1334.62 777.01 1334.69   Q 774.90 1334.98 772.91 1334.60   Q 770.96 1334.23 768.99 1334.23   Q 759.96 1334.23 750.00 1334.24   C 749.46 1334.24 748.73 1334.74 747.97 1334.74   Q 743.51 1334.76 738.91 1334.76   A 0.45 0.44 -0.0 0 0 738.46 1335.20   Q 738.49 1347.13 738.47 1359.57   Q 738.47 1361.69 738.02 1363.80   C 737.60 1365.81 738.50 1367.77 738.50 1369.86   Q 738.45 1386.45 738.49 1403.23   Q 738.49 1403.53 738.63 1403.80   Q 738.74 1404.02 738.86 1404.23   Q 739.01 1404.51 739.01 1404.82   Q 738.98 1451.65 739.01 1498.40   Q 739.01 1498.88 738.50 1498.89   L 698.54 1499.34   A 0.86 0.85 -0.3 0 1 697.67 1498.49   Q 697.67 1474.77 697.68 1450.92   C 697.68 1450.48 697.58 1450.23 697.35 1449.86   A 1.60 1.57 29.9 0 1 697.12 1449.04   Q 697.22 1422.23 697.15 1383.36   C 697.14 1382.22 696.81 1381.16 696.80 1380.02   Q 696.51 1344.46 696.67 1309.04   C 696.67 1307.97 696.07 1307.05 696.07 1306.08   Q 696.08 1301.46 696.05 1297.00   Q 696.04 1295.49 697.55 1295.49   Q 707.96 1295.50 718.45 1295.49   C 718.91 1295.49 719.09 1295.33 719.47 1295.12   Q 719.77 1294.95 720.13 1294.95   Q 748.60 1294.99 777.14 1294.99   C 778.86 1294.99 780.18 1295.52 781.95 1295.49   Q 783.69 1295.46 785.56 1295.73   Q 787.50 1296.01 789.23 1296.29   Q 805.27 1298.90 818.20 1308.02   Q 821.14 1310.09 823.60 1312.69   C 825.82 1315.02 828.23 1317.02 830.05 1319.76   Q 839.08 1333.35 841.67 1349.45   C 841.82 1350.39 841.54 1351.47 842.00 1352.31   A 2.01 1.90 32.0 0 1 842.25 1353.26   Q 842.25 1360.72 842.26 1368.32   Q 842.26 1369.24 841.92 1370.11   C 841.62 1370.87 841.73 1371.84 841.61 1372.72   Q 839.92 1384.85 833.92 1395.91   C 830.37 1402.45 825.54 1408.42 819.09 1412.82   Q 811.39 1418.09 803.59 1421.78   Z"/>
    <path fill="white" d="   M 614.50 1335.95   Q 614.50 1353.58 614.53 1372.03   C 614.53 1372.69 615.01 1373.15 615.01 1373.73   Q 615.00 1396.00 615.04 1418.22   C 615.04 1419.17 615.55 1419.93 615.55 1420.97   Q 615.51 1462.75 615.54 1499.45   Q 615.54 1500.01 614.98 1500.01   L 584.76 1500.01   A 1.40 1.37 26.6 0 0 583.95 1500.27   Q 583.83 1500.35 583.70 1500.43   Q 583.52 1500.54 583.32 1500.54   Q 579.23 1500.53 575.32 1500.55   Q 574.77 1500.55 574.81 1500.01   Q 574.90 1498.24 574.64 1496.80   Q 574.25 1494.67 574.25 1493.66   Q 574.24 1475.36 574.24 1457.05   A 1.58 1.57 28.2 0 0 573.97 1456.17   Q 573.73 1455.83 573.73 1455.46   Q 573.77 1404.90 573.72 1387.81   Q 573.72 1387.30 573.47 1386.88   Q 573.21 1386.45 573.21 1385.95   Q 573.19 1378.50 573.25 1370.92   Q 573.26 1369.32 573.68 1367.71   C 574.11 1366.09 573.24 1364.69 573.24 1363.09   Q 573.23 1349.55 573.23 1336.06   A 0.29 0.29 0.0 0 0 572.94 1335.77   Q 558.75 1335.74 544.66 1335.77   Q 544.17 1335.77 543.78 1336.06   A 1.11 1.10 26.8 0 1 543.13 1336.27   L 518.52 1336.27   Q 517.96 1336.27 517.96 1335.70   Q 517.96 1330.53 518.00 1325.48   C 518.01 1323.69 517.47 1321.90 517.47 1320.49   Q 517.42 1308.97 517.48 1297.58   Q 517.48 1296.99 518.07 1296.99   C 520.31 1297.01 525.65 1297.53 527.49 1296.63   Q 527.81 1296.47 528.17 1296.47   Q 554.31 1296.55 580.14 1296.49   C 581.16 1296.49 581.79 1296.01 582.78 1296.01   Q 621.78 1296.01 661.50 1295.99   Q 661.86 1295.99 662.15 1295.76   Q 662.52 1295.46 663.00 1295.46   L 669.00 1295.49   A 1.27 1.26 0.0 0 1 670.27 1296.75   L 670.27 1333.99   Q 670.27 1335.25 669.01 1335.25   L 615.21 1335.25   Q 614.50 1335.25 614.50 1335.95   Z"/>
    <path fill="#ffb11b" d="   M 494.75 1336.05   L 365.05 1336.98   A 0.96 0.96 0.0 0 1 364.08 1336.04   L 363.37 1299.06   A 0.96 0.96 0.0 0 1 364.32 1298.08   L 494.12 1297.38   A 0.96 0.96 0.0 0 1 495.09 1298.32   L 495.70 1335.07   A 0.96 0.96 0.0 0 1 494.75 1336.05   Z"/>
    <path fill="white" d="   M 222.15 1408.66   Q 232.85 1390.81 243.27 1372.05   Q 262.08 1338.20 283.15 1300.23   A 3.27 3.26 -75.3 0 1 286.02 1298.55   Q 295.46 1298.57 305.12 1298.58   C 306.86 1298.58 308.58 1297.64 310.22 1298.17   C 312.55 1298.93 316.05 1298.62 318.41 1298.50   Q 318.99 1298.47 319.51 1298.20   Q 320.56 1297.65 321.24 1298.36   Q 321.76 1298.89 321.75 1299.65   Q 321.72 1308.90 321.76 1317.29   C 321.77 1318.25 322.24 1318.84 322.24 1319.69   Q 322.25 1353.39 322.25 1386.92   Q 322.25 1387.46 322.50 1387.93   Q 322.78 1388.47 322.78 1389.10   Q 322.69 1422.48 322.80 1454.31   C 322.80 1455.54 323.24 1456.28 323.24 1457.41   Q 323.25 1479.16 323.25 1501.53   Q 323.25 1502.08 322.71 1502.08   L 284.08 1502.76   A 2.12 2.12 0.0 0 1 281.94 1500.42   C 282.26 1497.43 281.40 1494.81 281.44 1491.87   Q 281.49 1487.09 281.43 1481.88   Q 281.43 1481.50 281.59 1481.16   Q 281.68 1480.99 281.77 1480.83   Q 281.97 1480.51 281.97 1480.13   Q 281.98 1472.94 281.98 1465.75   C 281.98 1465.13 281.44 1464.47 281.45 1463.59   Q 281.47 1434.61 281.47 1405.83   Q 281.47 1405.37 281.18 1405.01   A 1.10 1.05 -65.2 0 1 280.95 1404.34   L 280.95 1388.52   Q 280.95 1386.73 280.03 1388.27   Q 270.25 1404.63 260.24 1422.40   Q 248.57 1443.14 236.59 1464.00   Q 236.25 1464.58 235.62 1464.81   Q 229.77 1466.99 223.45 1465.43   Q 222.95 1465.30 222.48 1465.50   C 222.00 1465.70 221.68 1465.97 221.13 1465.98   Q 216.71 1466.01 212.22 1465.96   A 4.80 4.78 -14.9 0 1 208.14 1463.60   Q 193.25 1438.37 177.37 1411.40   Q 171.05 1400.67 165.12 1390.70   Q 164.45 1389.57 163.98 1388.35   Q 163.87 1388.04 163.54 1388.05   Q 163.34 1388.05 163.25 1388.41   Q 163.21 1388.55 163.21 1388.68   L 163.20 1400.96   Q 163.20 1401.56 163.50 1402.09   Q 163.72 1402.47 163.72 1402.94   Q 163.73 1436.15 163.71 1469.38   Q 163.71 1469.77 163.95 1470.07   Q 164.05 1470.20 164.14 1470.34   Q 164.23 1470.48 164.23 1470.66   Q 164.24 1486.61 164.24 1502.52   Q 164.24 1503.12 163.64 1503.13   Q 160.59 1503.17 157.00 1503.08   Q 156.38 1503.07 155.87 1503.39   Q 155.46 1503.64 154.99 1503.64   L 122.84 1503.67   A 0.45 0.44 90.0 0 1 122.40 1503.22   L 122.40 1471.23   Q 122.40 1470.69 122.12 1470.22   Q 121.88 1469.82 121.88 1469.35   Q 121.86 1436.30 121.90 1403.13   C 121.90 1402.27 121.36 1401.73 121.36 1400.92   Q 121.32 1367.26 121.35 1333.60   C 121.35 1333.19 121.24 1333.01 121.05 1332.69   Q 120.81 1332.29 120.81 1331.82   L 120.82 1301.02   Q 120.83 1299.61 122.23 1299.61   L 157.00 1299.61   A 3.11 3.09 74.8 0 1 159.68 1301.16   L 221.73 1408.66   Q 221.94 1409.02 222.15 1408.66   Z"/>
    <path fill="#ffb11b" d="   M 496.11 1389.21   Q 496.23 1389.43 496.23 1389.70   Q 496.25 1396.51 496.27 1403.31   Q 496.27 1405.97 495.86 1408.63   Q 495.33 1412.09 496.17 1415.57   C 496.65 1417.57 494.90 1418.97 493.05 1418.96   Q 471.49 1418.87 451.95 1418.97   C 450.78 1418.98 449.88 1419.46 448.79 1419.46   Q 410.74 1419.44 372.53 1419.46   C 369.96 1419.46 367.62 1420.33 365.00 1419.92   Q 364.57 1419.85 364.57 1419.41   Q 364.63 1407.44 364.58 1395.71   Q 364.57 1392.36 364.18 1388.68   Q 363.81 1385.16 364.23 1381.35   Q 364.30 1380.76 364.90 1380.75   Q 374.25 1380.71 383.60 1380.76   C 385.27 1380.77 386.81 1380.23 388.17 1380.23   Q 429.07 1380.23 469.96 1380.23   Q 470.46 1380.23 470.89 1379.97   Q 471.30 1379.73 471.50 1379.73   Q 483.05 1379.72 494.41 1379.74   A 0.78 0.78 0.0 0 1 495.19 1380.45   L 495.95 1388.66   Q 495.97 1388.95 496.11 1389.21   Z"/>
    <path fill="#ffb11b" d="   M 408.99 1463.11   Q 409.33 1462.86 409.77 1462.86   Q 442.75 1462.89 475.52 1462.86   C 476.68 1462.86 477.47 1462.38 478.60 1462.37   Q 486.95 1462.32 495.67 1462.33   Q 496.26 1462.33 496.26 1462.92   C 496.28 1464.62 495.83 1468.59 496.53 1470.08   Q 496.75 1470.56 496.75 1471.08   Q 496.76 1483.76 496.77 1496.22   C 496.77 1497.52 495.99 1498.62 496.28 1499.80   Q 496.46 1500.51 495.73 1500.51   L 476.16 1500.51   Q 475.68 1500.51 475.23 1500.68   Q 474.41 1500.99 473.81 1500.99   Q 441.65 1501.00 409.08 1501.03   C 407.32 1501.03 405.76 1501.54 403.97 1501.54   Q 386.15 1501.50 365.44 1501.55   Q 365.12 1501.55 365.12 1501.24   L 365.12 1463.76   A 0.37 0.37 0.0 0 1 365.49 1463.39   L 408.28 1463.34   Q 408.67 1463.34 408.99 1463.11   Z"/>
    <div xmlns="" id="divScriptsUsed" style="display: none"/><script xmlns="" id="globalVarsDetection" src="chrome-extension://cmkdbmfndkfgebldhnkbfhlneefdaaip/js/wrs_env.js"/></svg>