<svg xmlns="http://www.w3.org/2000/svg" xmlns:xlink="http://www.w3.org/1999/xlink" version="1.1" id="Layer_1" x="0px" y="0px" viewBox="0 0 1024 1024" style="enable-background:new 0 0 1024 1024;" xml:space="preserve">
<style type="text/css">
	.st0{fill:#6c4ea2;}
</style>
    <g>
	<path class="st0" d="M513.5,53.5c1.7,0,3.8-0.5,4.8,1.2c26.9,32.4,46.5,73.4,43.9,116.3c-1.3,18.8-4.7,37.9-12.8,55.2   c-8.9,18.1-20,35.4-32.3,51.3c-0.8,0-2.4,0-3.2,0c-11.3-14.7-21.6-30.2-30-46.8c-9.5-19.2-14.1-40.5-15-61.7   C466.6,126.4,486.3,85.3,513.5,53.5z"/>
        <path class="st0" d="M415.4,171.8c1.7-4.8,1.8-10.7,6-14.2c10.3,6.4,19.1,15,28.4,22.6c2.7,1.6,1.8,5.1,2,7.8   c-1.1,21.4,3.9,42.7,12.7,62.1c8.6,18.3,17.6,36.5,26.2,54.9c1.1,1.8,0.8,3.9,0.8,6c-14.8-7.3-28.9-16.6-42.2-26.4   c-15-12.1-28.5-27.5-33.1-46.7C408.2,216.7,409,193.2,415.4,171.8z"/>
        <path class="st0" d="M579.7,183.4c8.1-10.2,19.2-18,29.4-26c3.4,1.6,4,5.6,5.3,8.7c6.8,20,9,41.9,3.6,62.4   c-3.8,9.5-5.8,19.9-11.7,28.5c-14.3,23.3-38.3,37.9-61.4,51.1c-1.5,0.4-3.1,0.8-4.6,1.2c0.2-2.1-0.3-4.3,0.5-6.2   c7.5-16.6,15.5-33.1,23.6-49.4C575.2,232,581.2,207.8,579.7,183.4z"/>
        <path class="st0" d="M297.7,214c0.1-1.5,1.8-2.3,2.7-3.4c32.5,17,65.1,34.4,94.1,57.1c41,31,74.5,73.2,90.6,122.4   c9.9,28.8,12.7,59.5,11.4,89.8c-2,20.1-5.4,40.6-14.2,59l-2-0.6c-4.7-25.8-10.5-51.8-22.4-75.3c-4.5-8.3-6.3-17.9-12.8-25.1   c-15.7-26.2-37.2-48.8-62.2-66.4c-3.3-2.1-6.1-5.7-10.3-5.9c1.3,2,2.8,3.9,4.3,5.8c27.3,30.8,49.8,65.8,65.3,104   c2,5.7,5.6,11.2,5.6,17.3c-2.5,0-5,0.2-7.4-0.3c-25.9-6.9-51.9-15-74.6-29.6c-22-13.9-40.3-33.5-51.7-56.9   c-6.1-10.8-7.9-23.1-12.8-34.3C286.1,320.5,288.7,265.9,297.7,214z"/>
        <path class="st0" d="M642.9,262c27.7-19.6,57.4-36.4,87.8-51.5c0.9,0.9,1.8,1.7,2.5,2.8c7,31.7,8.2,64.3,7.3,96.7   c-1.4,25-5,50.4-14.7,73.7c-4.9,20.8-16.9,39.4-31.3,54.8c-25.4,27.7-61.2,43-96.9,52.4c-5,0.9-9.9,3.2-15,2.4   c9.5-30.3,25.5-58.2,42.4-85c7.5-12.5,16.9-23.8,26.5-34.8c1.7-2.3,4.7-4.1,4.9-7.2c-27.9,16.4-50.9,40.6-67.6,68.1   c-3.7,6.5-9.8,11.8-11.2,19.5c-11.4,22.7-19.4,46.9-24.3,71.8c-1.2,5-1.6,10.4-4.3,15c-16.8-39.6-18.1-84.4-9.8-126.2   c7.2-34.4,22.6-66.8,43.8-94.7C600.2,298,620.8,278.9,642.9,262z"/>
        <path class="st0" d="M755.5,472.8c10-21.5,24.4-41.2,43.6-55.2c0.6,0,1.8-0.1,2.3-0.1c-1,17-5.7,33.8-10.2,50.2   c-11.9,38.4-32.7,73.2-54.6,106.7c-21.7,33.4-49.9,64.1-86.5,80.9c-22.3,10-46.1,17.8-70.5,19.3c-0.1-1.5-0.1-3,0.1-4.5   c8.8-16.8,20.4-32.5,35.6-44c13-9.7,27.5-17.3,41.1-26c16.1-9.5,30-22.3,42.7-36C723.8,537.7,740.2,505.1,755.5,472.8z"/>
        <path class="st0" d="M229.5,417.5c3.2-0.9,5,2.1,7.1,3.9c17.4,14.7,30.1,34.2,39.7,54.7c19,41.9,43.4,82.7,80.1,111.4   c13.5,9.7,27.4,18.9,41.9,27.1c22.5,12.5,40.8,32.2,52.3,55.2c0.4,1.6,0.1,3.2,0,4.8c-16.9-1-33.4-6-49.5-11.1   c-35.6-12-66.2-36.1-89.2-65.4c-12.2-14.2-21.9-30.3-32-46.1C254.1,511.3,234.3,465.6,229.5,417.5z"/>
        <path class="st0" d="M303.9,476.7c-0.5-2-1.1-4.6,1.1-5.8c23,27.7,47.1,54.6,68.8,83.4c10.5,13.5,21,27,31.2,40.6   c1.8,1.5,2.9,3.4,2.8,5.7c-26.8-13.8-53.5-31-71-56.2C319.7,525.6,309.8,501.2,303.9,476.7z"/>
        <path class="st0" d="M723.5,473.4c1,0,2.1,0,3.2-0.1c-4,22.1-12.3,43.7-25.3,62c-9.3,11.3-17.3,23.7-28.5,33.2   c-14.5,11.5-29.7,23.5-47.5,29.1c0.1-1.5-0.2-3.2,0.9-4.4c6-8.5,12.9-16.4,19.1-24.8C669.2,535.1,697.2,504.8,723.5,473.4z"/>
        <path class="st0" d="M574,538c25.7-24.2,59.9-38.5,94.6-43.4c-7.9,10.3-19.1,17.4-28,26.8c-20.7,18.2-39.2,38.8-54.6,61.7   c-7.4,10.4-12.8,22-19.4,32.8c-9.7,25.2-18.1,51.1-20.2,78.2c-1.7,6.6,0.2,13.6-2.3,20.1c-2.8-3.4-5.1-7.1-6.6-11.3   c-7.8-19.6-11.8-40.8-11-61.9C529.8,602.7,545.8,564.7,574,538z"/>
        <path class="st0" d="M365.3,495.2c32.5,5.1,64,18.9,89,40.4c31.1,27.8,47.8,69.2,49.5,110.4c1.2,22.2-3.6,45.4-15.2,64.5   c-1,0-2.1,0-3.1,0c-1.4-27.5-5.4-55.2-15.9-80.9c-3.9-13.6-11.4-25.5-18.6-37.6c-22.3-36.1-53.9-65.1-85.6-92.8   C365.2,497.9,365.2,496.5,365.3,495.2z"/>
        <g>
		<path class="st0" d="M156.8,558.5c2.1-0.2,4.2-0.3,6.2,0.1c1.4,1.9,3.8,3.6,3.5,6.3c0.1,43.4-0.1,86.7,0.1,130.1    c0.4,7.9-2,16.4-8.2,21.6c-8.4,6.8-21.9,5-28.7-3.4c-6-7.3-5.4-17.4-4.7-26.2c0.8-17.6-0.2-35.2-0.6-52.8    c-2.8-5.8-8.7-9-12.6-13.9c-2.7-3.2-5.8-6.4-9.9-7.6c-6.3-0.5-12.6,0.2-18.9-0.3c-4.5-0.5-7.2-5.9-11.9-4.8    c-3.5,1.5-6.7,3.7-10.5,4.5c-14.1,3.4-29.5-9.4-28.2-24c-0.1-12.8,11.9-24,24.6-22.7c7.5-0.9,12.5,7,20,6.2    c24.9-0.1,49.8,0.1,74.6,0.1C155.5,568.2,152,561.6,156.8,558.5z M46.2,589c-0.9,8.4,12.1,13.4,16.9,6.1c3.1-4.7,8.1-6.7,13.6-5.5    c2.2,2,1.9,5.1,3.2,7.6c8.5,4,18.1,1.7,27,2.5c6.2,2,10,7.7,14.6,11.9c5.7,6,12.5,11.6,15.8,19.4c0.6,22.4-0.2,44.8,0.3,67.2    c0.3,3.9,2.5,7.7,6.1,9.3c5.3,1.1,10.2-4.2,9.9-9.4c0.2-36.7,0.1-73.3,0-110c0.4-2.5-1.1-5.1-3.9-4.7c-26.9,0-53.9-0.1-80.8,0.2    c-4.9,0.8-8.1-4.6-13-4.1C50.8,578.9,45.3,583.6,46.2,589z"/>
	</g>
        <path class="st0" d="M185.6,559.6c17.8-0.5,35.7-0.7,53.4,0c10.7,5.5,19.4,17.1,17.7,29.7c0.9,5.9-7.3,8.5-10.9,4.6   c-2.1-2.2-2.4-5.3-2.8-8.2c-0.6-7.8-8-14.6-15.9-14.1c-10,0.1-20.1-0.2-30.1,0.2c-0.6,7.3-1.5,14.8-0.7,22.2   c-0.2,45.2,0.4,90.7,0.1,136.1c-1,6.5-11.6,6.1-12.6-0.3c-0.1-54.9,0.1-109.9-0.1-164.9C183.4,562.9,184.7,561.3,185.6,559.6z"/>
        <g>
		<path class="st0" d="M786.9,560.8c3.3-1.3,4.4,3.1,5.2,5.5c1.4,6.3,5,12.4,10.8,15.6c4.3,2.8,10,2.4,13.8,6.1    c-4.9,5.2-13.3,4.2-18.2,9.5c-5.5,4.2-5.4,11.5-8.3,17c-0.8,0-2.5-0.1-3.3-0.1c-2.9-5.6-2.9-12.9-8.3-17.1    c-4.5-5.3-12.5-4.8-17.5-9.3c4.2-5.4,12.2-4.3,16.8-9.4C783.9,574.6,784.3,566.9,786.9,560.8z M785.9,578.5    c-3.1,3.1-10.3,7.7-5.9,12.4c2.9,2.6,4.9,7.2,9.2,7.7c3.3-3,6.9-5.9,9.5-9.5c-0.2-4.8-5.5-7.3-8.4-10.6    C788.7,578.4,787.3,578.4,785.9,578.5z"/>
	</g>
        <path class="st0" d="M217.7,592.7c4.1-3.5,10.9,1.2,10,6.2c-0.1,33.1-0.1,66.2,0.8,99.2c2.7,2.7,6.9,1.8,10,3.6   c8.6,4,11.9,15.9,7,24c-6.5,12.1-26.8,10.3-31-2.9c-3.2-8.5,1.5-17.2,0.8-25.9c0.2-32-0.5-64-0.5-96   C214.8,598.1,215.3,594.7,217.7,592.7z"/>
        <path class="st0" d="M877.7,648.7c-11.5-8.7-7.5-32.1,8.3-32.9c21.7-0.6,43.4,0,65-0.2c4.6,0.2,10.1,0,13.2,4c1.9,3.6-1,8.2-5.1,8   c-22.7,0.6-45.5-0.4-68.2,0.5c-4-0.5-8.6,3.2-7.1,7.5c1.7,4,3.8,10-0.6,13C881.4,648.7,879.5,648.7,877.7,648.7z"/>
        <g>
		<path class="st0" d="M269.6,622.3c13.5-3,27.5,8.1,28.9,21.7c1.1,9.5-4.8,18.9-13.1,23.2c-1.8,1.1-4.4,2.2-4,4.8    c-0.2,21.7-0.1,43.4,0.2,65.1c3.6,10.1,14.3,15.4,19.6,24.4c2.4,6.1-5.5,10.6-10.3,7.4c-6.9-6.6-13.6-13.5-19.7-20.8    c-2-2.6-3.1-5.8-2.8-9c0.1-22.4,0.3-44.7,0.1-67c0.1-3-3.2-4.2-5.4-5.4c-7.2-3.2-11.2-11-12.3-18.5    C249.5,636.4,258,624.3,269.6,622.3z M269.9,636.6c-6.1,3.1-7.6,12.3-2,16.6c6,6.5,17.9,0.3,16.7-8.2    C283.6,638.1,276.1,634.6,269.9,636.6z"/>
	</g>
        <g>
		<path class="st0" d="M727.3,648.1c-1.7-12.7,10.2-24.4,22.8-23.6c14.3,0.2,25.6,16.1,20.3,29.6c-0.4,3-4.9,6.7-1.3,9.1    c3.6,0,7.1,1.8,8.7,5.2c2.9,5.8,6.8,12,5.7,18.7c-8.9,2.2-19,1.9-27.9-0.7c0.2,13.5,0,27.1,0.2,40.6c0.3,3-1.3,5.7-3.6,7.5    c-1.8,0-3.6,0.1-5.4,0c-1.9-1.5-3.5-3.3-4.1-5.7c-1-13.7,1-27.8-0.6-41.3c-8.8,0.8-17.8,1.6-26.5-0.4c-0.8-6.7,2.6-13.1,5.5-19    c1.8-4.2,6.5-4.6,10.4-5.1C731.6,657.8,726.6,653.7,727.3,648.1z M746,639.5c-6.2,1.8-6.7,10.8-1.5,14.1    c6.5,6.2,17.3-4.2,12.1-11.1C754.3,638.8,749.8,638.9,746,639.5z"/>
	</g>
        <g>
		<path class="st0" d="M808.8,645.5c3.7-8,12.3-13.8,21.2-13.2c14.6-0.1,27,15.4,23.4,29.6c-1.5,7.7-7.2,13.2-13,17.8    c-0.2,39.8,0,79.6,0,119.3c-0.2,3.2-2.7,7.2-6.4,6.5c-4.3,0.4-6.7-4.8-6.5-8.5c-0.1-37.4,0.2-74.7-0.3-112.1c0.3-6-6.4-6-10.2-8.4    C807.2,670.2,803.3,656,808.8,645.5z M825.9,647.5c-9.4,3.9-6,19.6,4,19.3c8.9,1,13.5-12.2,6.6-17.3    C834,646.3,829.5,647.2,825.9,647.5z"/>
	</g>
        <path class="st0" d="M82,655.5c9.9-3,20.7,4,21.5,14.4c1.5,9.4-7,18.9-16.4,18.6c-8.9,0.6-16.7-7.8-16.7-16.5   C69.5,664.7,75.2,657.7,82,655.5z"/>
        <path class="st0" d="M933.2,658.8c9.2-1.9,18.4,4.7,21.2,13.3c0.7,5.8,0.8,12.2-3.3,16.9c-6,7.9-18.6,8.5-26,2.2   c-3.7-3-5.3-9-11.1-8.5c-9.2,0.7-23-3.4-27.4,7.6c-2.1,14.1-0.7,28.4-0.2,42.6c3.1,4.1,8.5,6.4,10.6,11.4   c5.7,10.7-2.4,26.2-15.1,25.6c-12.3,1.6-23-12.3-18.5-23.8c1.3-6.8,9.8-9.7,9.7-16.9c0.1-13.6-0.2-27.2,0.1-40.7   c0.7-8.4,8-14.6,15.4-17.5c9.9-1.8,20.3,1.1,30-1.4C923.1,665.3,926.7,659.6,933.2,658.8z"/>
        <g>
		<path class="st0" d="M311.4,709c-7.8-13.9,3.6-33.7,19.6-33.7c10.5-1.1,21.1,6,24.1,16c4.2,11.1-2.3,24.7-13.2,29.2    c-2.2,0.9-4.6,2.6-4.4,5.3c-0.2,9.7-0.1,19.4,0,29.1c-0.1,5.1,4.1,8.7,7.3,12.1c10.9,11.1,21.7,22.3,32.7,33.3    c2.8,2.8,6,6.3,10.3,6.1c12,0.2,24.1,0.2,36.1,0.1c4.1-0.4,7.9,1.9,10.5,4.9c9.3,9.6,19.3,18.7,28,28.9c2.2,2.3,3.1,5.5,2.9,8.6    c-0.1,24.4,0,48.7,0.1,73.1c0.4,3.5-2.3,6.5-5.5,7.3c-4.4,0.5-7.8-4.2-7.5-8.3c0.1-23.4,0.2-46.8,0-70.1c0.4-3.6-2.1-6.5-4.5-9    c-6.1-5.9-12-12-18-18c-2.5-2.4-5.6-4.8-9.3-4.6c-12.9-0.2-25.8,0.1-38.7-0.2c-4.5-0.1-8.1-3-11-6.2    c-13.9-14.8-28.7-28.6-42.3-43.7c-2.6-3.1-4.5-7.1-4.2-11.3c0-11.7,0.2-23.5,0-35.2C320.6,717.7,313.6,715.5,311.4,709z     M328.5,689.8c-8.7,3.6-6.3,17.2,2.5,18.9c6.6,1.6,12.3-5.6,11.5-11.7C341.3,690.7,334.1,687.8,328.5,689.8z"/>
	</g>
        <path class="st0" d="M665.6,693.3c4.5-4.5,9.4-10,16.4-9.8c8.6-1,16.7,5.5,19.1,13.6c2.4,8.6-2.8,18.2-11,21.3   c-7.9,3.4-18,0.1-22.3-7.3c-1.5-1.9-2.9-4.8-5.7-4.6c-12.4-0.2-24.7,0-37,0c-6.5-0.4-12.7,4.1-15.2,9.9c-1.6,3.5-0.6,7.9-3.5,10.8   c-1.9,2.1-5,1.1-7.5,1.4c-7.4-5-4.4-15.7-0.1-21.8c4.9-6.5,11.7-12.6,20.3-13C634.5,693.3,650,694.2,665.6,693.3z"/>
        <g>
		<path class="st0" d="M382.6,725.1c2.4-8.8,11-16.2,20.4-15.7c10-0.8,19.2,7.1,21.5,16.6c0.4,3.9,0.1,7.8,0.2,11.6    c2.5,3,7,0.7,9.6,3.3c1.4,5.4,2.2,12-0.3,17.1c-7,3-15.1,0.5-22.5,1.6c-4.6,5.9,0.6,13.9-1.8,20.5c-0.6,5.8-9.6,7.6-12,2    c-2.8-6.7-0.1-14.4-1.4-21.4c-7.1-3.9-16.9,1.6-23.8-3.4c0-5.4-0.6-10.9,0.3-16.2c2.5-2.9,7-0.4,9.5-3.5    C382.5,733.4,382,729.2,382.6,725.1z M400.3,724.5c-6.4,2.5-7.5,12.8-1.3,16.5c6.8,4.9,17-4.7,12.6-11.9    C409.6,724.7,404.7,723.5,400.3,724.5z"/>
	</g>
        <path class="st0" d="M787.5,717.9c7.8-2.5,17.2,0.9,20.5,8.7c5.4,9.6-1.5,23.9-12.9,24c-10.3,1.4-20.1-9.1-17.9-19.3   C777.9,725.4,782.2,720.4,787.5,717.9z"/>
        <path class="st0" d="M508.9,740.5c4.9-1.3,9.2,3.7,8.6,8.4c0,57.3,0,114.7,0,172c0.5,4.1-0.7,9.8-5.5,10.5c-5.2,1-7.9-5.1-7.5-9.5   c0.4-58.1,0.1-116.1,0.2-174.2C504.8,744.9,506.3,742.1,508.9,740.5z"/>
        <path class="st0" d="M134.5,754c0.8-4,5.3-8.6,9.5-5.7c4.9,2.8,2.3,9.1,3.7,13.6c1.8,3.2,5.4,5.8,9.2,5.6c12.5,0.3,25-0.7,37.4,0.1   c6.2,3.1,10.7,8.6,15.7,13.3c15.6,15.8,31.5,31.2,46.5,47.6c2.3,2.9,6,3.5,9.3,4.4c6.5,2.1,9.3,8.9,14.2,13.1   c3.7,3.3,7.2,7.7,5.4,13c-2.2,2.8-6,3.4-9.3,2.2c-5.1-3.5-8-9-11.7-13.8c-2.8-3.6-8.1-2.6-11.5-5.4c-20.2-20.4-39.6-41.7-60.9-61   c-10.8-2.5-22.1-0.8-33.1-1.3C145.3,781.2,133.2,767.2,134.5,754z"/>
        <path class="st0" d="M467.3,750.2c14.3-2.1,23,17.5,14,27.9c-7.9,11.3-27.7,6.4-29.9-7C449.4,761.4,456.8,749.7,467.3,750.2z"/>
        <path class="st0" d="M542.8,766.1c2.2-8.8,10.7-16.7,20.2-15.7c23,0.1,46,0.2,69,0.2c5.3-0.1,11,2.5,13.1,7.6c2,8,0,18.1-7.8,22.3   c-3.4,2.2-7.6,0.7-9.9-2.3c-0.1-1.8-0.1-3.6,0.1-5.3c1.9-1.9,3.9-3.7,5.9-5.5c0.1-1.2,0.1-2.5-0.1-3.7c-22.4-1.7-44.9-1.1-67.3-0.8   c-5.2-0.1-10.5,2.8-11.3,8.3c-0.5,9.6,0.2,19.2-0.4,28.8c-0.7,4.2-5,7.1-9.1,5.4c-4.9-3.5-3.4-10.2-3.5-15.4   C542.9,782.1,541.8,774,542.8,766.1z"/>
        <path class="st0" d="M233.5,760.1c-1.2-5.7,5.6-9.5,10.4-7.2c6.4,3.3,10.7,9.4,15.9,14.4c7.3,7,14.7,14,21.6,21.4   c3.1,3.1,6.3,6.8,10.9,7.6c9.2,0.5,18.5-0.2,27.8,0.3c4,1.5,6.8,4.8,9.9,7.5c5.3,6.5,15.9,11.5,13.7,21.3c-2.1,3-6.4,2.8-9.4,1.8   c-6.9-5.2-11.3-13.5-19.2-17.5c-9.2-1-18.6,0-27.9-0.6c-3.1-0.3-5.8-1.9-7.9-4.1c-11.6-11.5-23.2-22.9-34.5-34.6   C241.2,766.7,234.5,765.7,233.5,760.1z"/>
        <path class="st0" d="M698.9,755.4c17-0.1,34.1-0.1,51.1-0.1c5.2-0.3,9,3.9,12.5,7.2c8.9,9.2,19,17.2,27.4,26.8   c5.2,6.1,11.7,10.8,17,16.8c2.4,2.3,2.1,6,1.5,9c-2.9,3.3-8.4,3.3-11.4,0.1c-13.9-14.2-28-28.1-42.2-42c-3.3-3-7.1-6-11.8-5.5   c-14.3,0.4-28.6-0.9-42.8,1.1c-4.5,1.7-7.4,5.7-10.8,8.8c-12.9,11.8-25,24.4-37.4,36.6c-3.1,2.7-6.6,5.6-10.9,5.5   c-13,0-26.1,0-39.1,0.1c-3,0-6,1.2-8,3.4c-5.7,5.6-11.3,11.3-17.3,16.7c-3.1,3.2-7,6.5-7,11.3c-0.1,23.7,0.1,47.4-0.1,71.1   c0.3,2.7-1.3,5-3.3,6.5c-1.8,0-3.6,0-5.4-0.1c-2.3-1.8-3.6-4.6-3.3-7.5c0.2-25-0.2-50,0.3-75c1.6-8.7,9.8-13.8,15.6-19.7   c7.1-6.3,13.2-14.2,21.6-18.8c13.9-1.1,27.9,0.5,41.7-0.8c4,0.2,6.8-3.1,9.6-5.5c14.3-13.5,27.6-27.9,42.2-41   C691.2,757.6,694.9,755.2,698.9,755.4z"/>
        <g>
		<path class="st0" d="M709.6,802.1c12.8-4,27,4.6,30.6,17.2c3.1,8.7-0.5,18.6-6.7,25c-3,3.2-8.8,3.7-9.8,8.5    c-0.5,10.1,0.2,20.2-0.1,30.2c0.2,5.8-9.1,8.8-11.6,3.1c-2.8-10.2,0.9-20.9-1.4-31.3c1.1-5.3-4.8-6.6-8.2-8.7    c-7.2-5.2-10.8-14.6-10-23.3C693.5,813.5,700.4,804.8,709.6,802.1z M712.6,816c-9,2.8-9,16.2-0.8,19.9c7,5.2,17.1-3.1,15.8-10.9    C726.9,818,718.9,813.6,712.6,816z"/>
	</g>
        <path class="st0" d="M192.8,813.5c-3.5-2.9-4.5-8.7-0.8-11.9c5.9-2.5,12.7,1.8,10.6,8.6C200.6,813.9,196.5,814.2,192.8,813.5z"/>
        <path class="st0" d="M763.9,844.6c4.4-1.6,9.6,0.7,10.5,5.4c1.2,5.8-6.9,11.7-11.4,7C759,853.8,759.7,847.3,763.9,844.6z"/>
        <path class="st0" d="M324.6,861c2.6-12.8,20.3-18.5,29.6-9.2c3,2.4,3.9,6.6,7.2,8.5c9.8,2,19.9,0.1,29.8,1.5   c8.4,2.8,15.3,10.1,17.9,18.5c1.6,9.5,1.1,19.2,1.3,28.8c0.1,2.8-1.6,5.1-3.4,7.1c-2,0.5-4,0.6-6,0.1c-6.5-6-2.5-15.7-3.5-23.4   c1.3-8.7-4.6-18.3-13.7-19.1c-7.7-0.6-15.5-0.3-23.3-0.2c-4,3.4-7,8.5-12.4,9.8C335.1,888.2,320.1,874.2,324.6,861z"/>
        <path class="st0" d="M653.2,859.2c10-11.6,31.8-3.5,31.5,11.8c1.7,12.1-11.3,22.2-22.7,18.7c-6.6-1.2-10-7.3-14-11.9   c-9.3,0.6-21.3-3.4-28.3,4.7c-7.1,10.6,1.1,24.2-3.8,35.4c-2.5,4.9-11.1,3.3-11.5-2.3c-0.3-10.2-0.2-20.5,0-30.8   c1.8-11.9,13.4-21.5,25.5-20.2C637.8,863.8,648.2,867.2,653.2,859.2z"/>
</g>
    <div xmlns="" id="divScriptsUsed" style="display: none"/><script xmlns="" id="globalVarsDetection" src="chrome-extension://cmkdbmfndkfgebldhnkbfhlneefdaaip/js/wrs_env.js"/></svg>