<svg width="256" height="256" viewBox="0 0 528 528" fill="none" xmlns="http://www.w3.org/2000/svg">
<g clip-path="url(#clip0_4443_36)">
<path d="M263.745 523.313C407.101 523.313 523.313 407.101 523.313 263.745C523.313 120.39 407.101 4.17749 263.745 4.17749C120.39 4.17749 4.17746 120.39 4.17746 263.745C4.17746 407.101 120.39 523.313 263.745 523.313Z" stroke="#3d8361" stroke-width="8.35497" stroke-miterlimit="10"/>
<path d="M248.477 60.5944C253.518 60.2184 258.607 60.0304 263.745 60.0304C295.353 60.0562 326.521 67.4325 354.787 81.5766C383.053 95.7206 407.642 116.245 426.611 141.527C445.581 166.809 458.41 196.156 464.086 227.25C469.762 258.344 468.128 290.331 459.314 320.685" stroke="#3d8361" stroke-width="8.35497" stroke-miterlimit="10"/>
<path d="M198.41 456.683C171.412 447.513 146.639 432.781 125.69 413.44C104.741 394.098 88.0834 370.577 76.7921 344.396C65.5008 318.215 59.8275 289.957 60.1388 261.446C60.4501 232.936 66.739 204.808 78.5993 178.88" stroke="#3d8361" stroke-width="8.35497" stroke-miterlimit="10"/>
<path d="M221.031 473.915C221.244 476.617 221.167 479.334 220.801 482.019C220.446 483.92 220.07 484.797 219.673 484.63C219.73 481.778 219.485 478.929 218.942 476.129C218.579 474.301 218.048 472.511 217.354 470.782C216.79 469.507 216.331 468.505 215.955 467.836C215.674 467.403 215.476 466.922 215.37 466.416C215.49 465.455 215.735 464.514 216.101 463.617C216.582 462.218 216.978 461.528 217.292 461.528C217.605 461.528 218.441 462.844 219.381 465.476C220.304 468.203 220.858 471.041 221.031 473.915Z" fill="#3d8361"/>
<path d="M237.887 463.91C237.587 465.297 237.027 466.615 236.237 467.795C235.963 468.274 235.572 468.677 235.101 468.966C234.63 469.254 234.094 469.419 233.542 469.445C233.121 469.469 232.701 469.375 232.331 469.173C231.902 468.896 231.515 468.558 231.182 468.171C231.034 468.588 230.782 468.962 230.451 469.257C230.122 469.501 229.744 469.672 229.344 469.758C229.747 470.714 230.055 471.708 230.263 472.724C230.553 474.203 230.687 475.708 230.66 477.215C230.677 478.726 230.565 480.235 230.326 481.727C230.194 482.714 229.868 483.666 229.365 484.526C229.184 483.845 229.107 483.141 229.135 482.437C229.088 481.353 228.983 480.272 228.822 479.199C228.538 476.909 227.904 474.675 226.942 472.578L224.247 466.688C224.414 466.082 224.54 465.601 224.623 465.267C224.895 464.206 225.244 463.166 225.668 462.155C225.668 462.155 225.981 462.447 226.42 463.074C226.76 463.625 227.225 464.089 227.776 464.43C228.327 464.771 228.949 464.979 229.594 465.038C230.237 465.025 230.853 464.78 231.328 464.348C231.919 463.764 232.362 463.048 232.623 462.259C232.924 462.788 233.297 463.273 233.73 463.701C233.951 463.915 234.213 464.083 234.5 464.194C234.787 464.305 235.093 464.358 235.401 464.348C235.683 464.361 235.963 464.304 236.217 464.184C236.472 464.064 236.694 463.884 236.863 463.659C237.221 463.198 237.529 462.701 237.782 462.176C237.97 462.176 238.054 462.427 238.054 462.907C238.068 463.249 238.012 463.591 237.887 463.91Z" fill="#3d8361"/>
<path d="M240.164 467.899C240.511 466.52 241.052 465.198 241.772 463.972C242.754 462.239 243.861 461.361 244.884 461.361C245.367 461.334 245.845 461.461 246.251 461.724C246.656 461.987 246.968 462.372 247.14 462.823C247.63 463.963 247.865 465.197 247.829 466.437C247.686 468.286 247.407 470.122 246.994 471.93C246.711 473.256 246.564 474.606 246.555 475.962C246.609 476.879 246.92 477.762 247.453 478.51C247.952 479.176 248.269 479.961 248.372 480.787C248.311 481.457 248.141 482.113 247.871 482.729C247.643 483.408 247.327 484.054 246.931 484.651C245.974 484.08 245.266 483.171 244.947 482.103C244.592 480.995 244.409 479.84 244.404 478.677C244.402 477.382 244.514 476.089 244.738 474.813C244.968 473.393 245.156 472.432 245.302 471.909C244.471 472.081 243.621 472.137 242.774 472.077C241.98 472.006 241.238 471.65 240.686 471.074C240.352 470.625 240.13 470.102 240.039 469.55C239.948 468.998 239.991 468.432 240.164 467.899ZM243.61 465.434C242.942 465.434 242.503 465.581 242.336 465.894C242.169 466.117 242.081 466.388 242.085 466.667C242.089 466.894 242.141 467.118 242.237 467.324C242.333 467.53 242.471 467.713 242.642 467.863C242.813 468.012 243.014 468.124 243.231 468.192C243.448 468.259 243.677 468.28 243.902 468.254C244.926 468.254 245.448 467.857 245.448 467.064C245.446 466.849 245.399 466.638 245.309 466.443C245.219 466.249 245.088 466.076 244.926 465.936C244.754 465.763 244.549 465.628 244.322 465.538C244.096 465.448 243.853 465.406 243.61 465.414V465.434Z" fill="#3d8361"/>
<path d="M263.85 463.91C263.555 465.335 262.988 466.69 262.179 467.899C261.905 468.379 261.514 468.782 261.043 469.07C260.572 469.359 260.036 469.523 259.484 469.549C259.069 469.579 258.655 469.485 258.294 469.278C257.857 469.002 257.463 468.664 257.124 468.275C256.984 468.697 256.731 469.072 256.393 469.361C256.066 469.609 255.688 469.781 255.286 469.863C255.708 470.812 256.017 471.807 256.205 472.828C256.504 474.306 256.644 475.812 256.623 477.319C256.634 478.831 256.515 480.34 256.268 481.831C256.152 482.819 255.831 483.772 255.328 484.63C255.223 484.63 255.14 483.899 255.077 482.541C255.045 481.457 254.948 480.376 254.785 479.304C254.482 477.017 253.849 474.787 252.905 472.682C251.986 470.719 251.088 468.776 250.21 466.792C250.377 466.186 250.503 465.706 250.586 465.372C250.852 464.311 251.194 463.271 251.61 462.259C251.61 462.259 251.944 462.552 252.383 463.179C252.721 463.727 253.182 464.19 253.729 464.53C254.277 464.871 254.895 465.08 255.537 465.142C256.18 465.134 256.797 464.888 257.27 464.453C257.861 463.868 258.304 463.153 258.565 462.364C258.881 462.889 259.26 463.373 259.693 463.805C259.913 464.02 260.175 464.189 260.462 464.3C260.75 464.412 261.056 464.463 261.364 464.453C261.645 464.46 261.923 464.401 262.177 464.282C262.431 464.162 262.653 463.985 262.826 463.763C263.176 463.297 263.484 462.801 263.745 462.28C263.912 462.28 264.017 462.531 264.017 463.011C264.01 463.318 263.954 463.621 263.85 463.91Z" fill="#3d8361"/>
<path d="M297.312 469.674C296.761 470.27 296.025 470.66 295.223 470.782C294.262 471.429 293.573 471.638 293.134 471.408C292.673 471.776 292.168 472.085 291.63 472.327C291.043 472.598 290.415 472.767 289.771 472.828C289.689 472.963 289.632 473.112 289.604 473.267C289.3 476.305 288.598 479.29 287.515 482.144C286.733 484.155 285.709 486.063 284.466 487.826C283.338 489.592 281.799 491.058 279.98 492.099C278.161 493.139 276.116 493.723 274.022 493.8C273.082 493.809 272.151 493.628 271.282 493.269C270.414 492.911 269.626 492.381 268.967 491.711C267.645 490.215 266.936 488.276 266.983 486.28C267.125 482.034 268.379 477.901 270.617 474.291C271.077 473.434 271.369 473.163 271.453 473.476C271.546 473.782 271.546 474.11 271.453 474.416C270.036 476.944 269.194 479.754 268.988 482.646C268.991 483.421 269.171 484.186 269.515 484.881C269.859 485.576 270.357 486.184 270.972 486.656C272.275 487.588 273.841 488.078 275.442 488.055C277.825 488.057 280.163 487.414 282.21 486.196C283.783 485.151 285.108 483.775 286.095 482.165C287.654 479.321 288.344 476.082 288.079 472.849V471.157C288.079 470.009 288.685 469.445 289.667 469.424C290.008 469.436 290.346 469.5 290.669 469.612C291.06 469.758 291.49 469.758 291.881 469.612C292.473 469.278 292.975 468.805 293.343 468.233C293.468 468.233 293.635 468.233 293.823 468.463C294.04 468.66 294.325 468.765 294.617 468.755C294.909 468.755 295.181 468.526 295.432 468.087C295.682 467.648 295.829 467.481 295.954 467.586C296.218 467.719 296.515 467.777 296.81 467.753C297.058 467.716 297.294 467.624 297.5 467.481L297.729 467.92C297.808 468.134 297.844 468.361 297.834 468.588C297.845 468.83 297.809 469.071 297.729 469.298C297.579 469.411 297.439 469.536 297.312 469.674Z" fill="#3d8361"/>
<path d="M289.604 493.779C290.335 492.4 290.795 491.69 290.962 491.69C291.129 491.69 291.714 491.794 292.299 492.358C292.789 492.818 293.236 493.322 293.635 493.862C293.99 493.256 294.408 492.609 294.847 491.773C295.285 490.938 295.578 490.666 295.724 490.666C296.364 490.78 296.939 491.13 297.332 491.648C297.864 492.136 298.211 492.793 298.314 493.507C298.234 494.404 297.884 495.256 297.312 495.951C296.664 496.87 296.184 497.329 295.891 497.329C295.599 497.329 295.327 497.058 294.805 496.536C294.376 496.098 293.915 495.693 293.426 495.324C292.445 497.288 291.672 498.269 291.087 498.269C290.852 498.22 290.639 498.095 290.481 497.914L289.333 497.141C288.81 496.703 288.539 496.431 288.539 496.327C288.783 495.435 289.141 494.579 289.604 493.779ZM299.15 460.526C298.899 460.526 298.607 460.776 298.293 461.361C297.826 462.176 297.548 463.085 297.479 464.021C297.41 464.957 297.553 465.897 297.896 466.771C297.837 466.899 297.752 467.013 297.646 467.105L297.312 467.377C297.133 467.747 297.068 468.161 297.124 468.567C297.118 468.931 297.182 469.293 297.312 469.633L298.105 468.86L298.419 468.526L298.774 468.15C299.003 467.878 299.171 467.774 299.317 467.836H299.797C300.127 467.902 300.463 467.937 300.8 467.941C300.886 467.612 300.942 467.277 300.967 466.938C300.988 466.528 300.988 466.116 300.967 465.706C300.967 465.267 300.967 464.829 300.967 464.369C300.934 463.935 300.879 463.502 300.8 463.074C300.423 462.966 300.091 462.739 299.854 462.426C299.616 462.114 299.487 461.733 299.484 461.34C299.421 460.839 299.317 460.526 299.15 460.526Z" fill="#3d8361"/>
<path d="M300.8 463.179C301.603 463.426 302.462 463.426 303.264 463.179C304.172 462.825 305.007 462.308 305.729 461.654C306.212 461.148 306.786 460.737 307.421 460.442C307.755 460.345 308.11 460.345 308.444 460.442C309.031 460.236 309.531 459.839 309.865 459.314C310.345 458.646 310.7 458.312 310.951 458.312H311.369C311.515 458.312 311.703 458.145 311.912 457.852C312.138 457.504 312.327 457.133 312.476 456.745C312.622 456.286 312.747 456.077 312.873 456.077C312.998 456.077 313.123 456.181 313.123 456.474C313.173 456.799 313.173 457.13 313.123 457.455C312.984 458.408 312.626 459.316 312.079 460.108C311.774 460.492 311.415 460.829 311.014 461.111L310.095 461.57C308.862 462.761 308.006 463.387 307.734 463.429L306.732 463.596C306.427 463.652 306.14 463.781 305.896 463.972C305.46 464.347 305.08 464.783 304.768 465.267C304.386 465.805 303.975 466.321 303.536 466.813C303.216 467.217 302.814 467.548 302.357 467.786C301.9 468.023 301.398 468.162 300.883 468.192C300.883 467.377 300.716 466.562 300.612 465.748C300.478 464.888 300.543 464.009 300.8 463.179Z" fill="#3d8361"/>
<path d="M317.259 474.165C317.259 476.254 317.614 477.737 318.512 478.343C318.718 478.499 318.955 478.61 319.207 478.668C319.459 478.725 319.721 478.728 319.974 478.677C320.201 478.635 320.416 478.546 320.607 478.417C320.797 478.287 320.959 478.12 321.081 477.925C321.37 477.493 321.595 477.022 321.75 476.526C321.938 475.982 322.105 475.732 322.272 475.732C322.439 475.732 322.544 475.92 322.523 476.296C322.424 477.366 322.214 478.423 321.896 479.45C321.589 480.737 321.058 481.959 320.329 483.063C320.066 483.484 319.708 483.838 319.284 484.095C318.859 484.353 318.381 484.507 317.886 484.546C317.388 484.517 316.91 484.346 316.506 484.054C316.103 483.762 315.791 483.36 315.609 482.896C315.083 481.613 314.855 480.228 314.941 478.844C314.941 477.633 315.108 475.69 315.442 473.016C315.734 470.343 316.131 467.481 316.612 464.432C316.904 463.555 317.489 461.988 318.366 459.753C318.47 459.544 318.554 459.46 318.659 459.481C318.763 459.502 318.805 459.607 318.805 459.753C318.805 460.86 318.533 462.97 318.136 466.019C317.739 469.069 317.447 471.847 317.259 474.165ZM320.622 458.333C320.881 457.473 321.253 456.651 321.729 455.889C322.46 454.51 322.92 453.8 323.087 453.8C323.254 453.8 323.839 453.8 324.423 454.448C324.913 454.908 325.361 455.411 325.76 455.952L326.972 453.863C327.41 453.132 327.703 452.756 327.849 452.756C328.494 452.871 329.07 453.23 329.457 453.758C329.987 454.239 330.334 454.888 330.439 455.596C330.359 456.493 330.009 457.345 329.436 458.04C328.789 458.959 328.308 459.419 328.016 459.419C327.724 459.419 327.452 459.147 326.93 458.625C326.501 458.188 326.04 457.783 325.551 457.414C324.57 459.377 323.797 460.359 323.212 460.359C322.968 460.317 322.747 460.191 322.585 460.004L321.416 459.043C320.873 458.709 320.664 458.437 320.664 458.333H320.622Z" fill="#3d8361"/>
<path d="M175.308 261.699C173.658 263.328 172.071 265.124 170.253 266.649C168.333 268.218 166.325 269.675 164.238 271.014C163.239 271.7 162.094 272.143 160.894 272.31C159.694 272.477 158.472 272.362 157.324 271.975C155.089 271.328 152.875 270.617 150.682 269.886C146.296 268.424 145.815 268.675 144.938 272.999C134.16 269.218 124.28 256.456 124.05 245.845C129.732 248.101 135.497 249.688 141.533 247.934C145.209 246.889 148.76 245.385 152.729 243.965C142.285 233.375 139.298 220.529 137.753 207.078C147.047 205.699 156.259 204.822 165.22 202.9C174.18 200.979 182.786 197.971 191.391 195.485C190.562 196.493 189.583 197.366 188.488 198.075C184.87 199.99 181.097 201.597 177.209 202.879C165.728 206.374 153.956 208.828 142.035 210.211C142.593 215.997 144.125 221.646 146.567 226.921C156.071 247.808 179.026 255.579 199.036 244.446C200.331 243.746 201.568 242.942 202.733 242.043C205.449 239.955 207.955 237.49 207.412 233.688C207.182 231.624 206.391 229.662 205.124 228.016C203.857 226.37 202.163 225.103 200.227 224.352C196.25 222.923 191.914 222.835 187.882 224.101C186.253 224.498 184.645 225.041 182.807 225.584C189.073 220.028 200.665 219.506 206.953 224.331C208.199 225.111 209.266 226.146 210.085 227.367C210.904 228.588 211.455 229.969 211.704 231.418C211.952 232.867 211.892 234.353 211.527 235.777C211.162 237.201 210.5 238.532 209.584 239.683C206.995 243.499 203.422 246.544 199.245 248.498C185.146 255.474 171.193 255.411 157.47 247.37C156.365 246.751 155.067 246.572 153.836 246.868C151.687 247.527 149.641 248.483 147.758 249.709C144.879 251.71 141.525 252.92 138.031 253.217C134.538 253.514 131.027 252.888 127.852 251.401C130.4 258.712 135.413 263.307 141.45 267.338C143.016 263.829 145.815 264.121 148.718 264.957C151.267 265.688 153.773 266.482 156.28 267.255C158.115 267.935 160.101 268.1 162.023 267.732C163.945 267.364 165.73 266.476 167.183 265.166C170.086 262.618 172.948 260.007 176.018 257.27L177.585 259.359C184.52 267.986 192.749 274.711 203.882 277.051C206.08 277.507 208.321 277.724 210.566 277.698C211.25 277.793 211.946 277.737 212.606 277.535C213.265 277.333 213.873 276.989 214.386 276.527C214.9 276.066 215.306 275.498 215.577 274.863C215.848 274.228 215.977 273.542 215.955 272.852C216.006 270.614 215.915 268.374 215.684 266.147C216.352 266.147 217.167 266.043 217.981 266.043C223.895 266.258 229.777 265.077 235.151 262.597C235.918 262.218 236.658 261.785 237.365 261.302C238.346 260.591 238.534 259.84 237.636 258.795C237.114 258.189 236.571 256.915 236.842 256.539C237.137 256.117 237.515 255.76 237.953 255.49C238.392 255.221 238.881 255.044 239.391 254.973C245.009 255.349 248.79 251.923 252.675 248.706C253.344 248.163 253.511 247.036 253.887 246.158C252.968 245.887 252.007 245.26 251.15 245.385C247.391 245.928 243.694 246.91 239.913 247.328C236.381 247.79 232.812 247.888 229.26 247.62C223.537 247.015 219.527 243.756 216.895 238.033C219.297 239.14 221.198 240.122 223.161 240.895C228.851 243.281 235.083 244.068 241.187 243.171C243.631 242.816 246.116 242.545 248.581 242.252C249.502 242.124 250.43 242.047 251.359 242.022C253.72 242.022 256.686 241.354 257.625 244.111C258.565 246.868 256.205 248.435 254.43 249.793C250.921 252.487 247.161 254.806 243.61 257.437C242.657 258.332 241.828 259.351 241.145 260.466C240.108 262.23 238.821 263.834 237.323 265.228C232.164 268.821 226.106 269.949 219.965 270.659L217.877 270.889C217.731 270.889 217.626 271.056 217.563 271.098C217.563 272.748 217.835 274.377 217.772 275.965C217.826 276.65 217.734 277.339 217.501 277.985C217.269 278.632 216.901 279.222 216.423 279.716C215.945 280.21 215.367 280.596 214.729 280.85C214.09 281.103 213.404 281.218 212.718 281.186C196.948 282.586 185.021 276.194 176.373 263.202L175.454 261.866C175.454 261.866 175.496 261.761 175.308 261.699Z" fill="#3d8361"/>
<path d="M161.669 188.237C160.485 183.796 160.209 179.163 160.854 174.612C161.5 170.062 163.056 165.688 165.428 161.752C168.749 156.196 174.452 155.59 178.838 160.353C181.187 163.323 183.363 166.427 185.355 169.648C186.195 170.707 187.109 171.705 188.091 172.634C189.055 171.69 189.891 170.622 190.577 169.46C192.31 165.47 193.71 161.355 195.464 157.387C196.737 154.221 198.311 151.186 200.164 148.322C206.806 138.839 218.336 138.17 225.939 146.88C228.466 149.916 230.671 153.206 232.519 156.697C235.986 162.964 240.435 176.102 240.686 180.843C240.414 180.154 240.122 179.465 239.85 178.754C237.274 171.337 233.689 164.308 229.198 157.867C226.941 154.73 224.263 151.919 221.239 149.512C219.838 148.313 218.194 147.431 216.42 146.926C214.646 146.421 212.784 146.306 210.961 146.588C209.138 146.869 207.397 147.541 205.858 148.558C204.319 149.575 203.018 150.912 202.044 152.478C199.762 156.249 197.712 160.156 195.903 164.175C194.596 166.894 193.124 169.531 191.496 172.07C189.637 174.702 187.778 174.723 185.501 172.426C183.747 170.671 182.243 168.666 180.551 166.87C175.162 161.209 168.645 162.003 164.593 168.77C162.369 172.807 161.266 177.365 161.397 181.971C161.355 184.06 161.564 186.149 161.669 188.237Z" fill="#3d8361"/>
<path d="M226.19 171.841C226.367 175.819 225.286 179.751 223.099 183.078C222.223 184.666 220.891 185.955 219.276 186.778C217.66 187.601 215.835 187.921 214.036 187.696C212.237 187.471 210.546 186.712 209.183 185.516C207.82 184.321 206.846 182.744 206.389 180.99C205.581 178.677 205.248 176.226 205.409 173.782C205.571 171.337 206.223 168.951 207.328 166.765C208.164 164.694 209.676 162.967 211.617 161.864C213.559 160.76 215.816 160.345 218.023 160.687C222.2 161.376 225.125 164.718 225.918 169.627C226.085 170.274 226.127 171.068 226.19 171.841ZM222.012 171.381C221.96 170.316 221.592 169.291 220.955 168.436C220.317 167.581 219.44 166.936 218.434 166.581C217.428 166.227 216.34 166.18 215.308 166.447C214.275 166.714 213.346 167.282 212.638 168.079C211.93 168.876 211.475 169.866 211.331 170.923C211.188 171.979 211.363 173.055 211.833 174.012C212.303 174.969 213.047 175.764 213.971 176.296C214.895 176.828 215.957 177.073 217.02 177C217.725 176.96 218.415 176.78 219.049 176.471C219.683 176.162 220.249 175.729 220.714 175.198C221.179 174.667 221.533 174.048 221.756 173.378C221.979 172.709 222.066 172.001 222.012 171.298V171.381Z" fill="#3d8361"/>
<path d="M280.226 202.629C283.831 199.374 286.524 195.234 288.037 190.619C288.633 188.577 288.669 186.413 288.142 184.352C287.645 182.485 286.535 180.839 284.989 179.679C283.443 178.52 281.552 177.915 279.62 177.961C277.627 177.8 275.631 178.242 273.892 179.229C272.153 180.216 270.75 181.703 269.865 183.496C269.552 184.081 269.281 184.687 268.821 185.585C267.651 181.95 267.359 178.817 269.573 175.976C270.689 174.404 272.225 173.178 274.006 172.439C275.787 171.701 277.74 171.479 279.641 171.799C282.593 172.378 285.311 173.811 287.457 175.92C289.603 178.029 291.083 180.721 291.714 183.663C292.773 188.406 292.145 193.37 289.938 197.699C289.097 199.483 287.685 200.936 285.927 201.829C284.168 202.721 282.162 203.003 280.226 202.629Z" fill="#3d8361"/>
<path d="M183.538 180.384C183.683 183.708 182.768 186.992 180.927 189.762C180.2 190.944 179.143 191.887 177.886 192.475C176.629 193.063 175.227 193.27 173.854 193.07C172.481 192.87 171.197 192.272 170.159 191.35C169.122 190.428 168.378 189.223 168.018 187.882C167.374 186.048 167.112 184.1 167.248 182.161C167.385 180.221 167.917 178.329 168.812 176.603C169.464 175.052 170.603 173.756 172.059 172.911C173.514 172.067 175.205 171.72 176.875 171.924C178.522 172.196 180.033 173.009 181.167 174.235C182.302 175.46 182.996 177.028 183.141 178.692C183.35 179.298 183.454 179.903 183.538 180.384ZM173.93 185.376C174.817 185.359 175.679 185.078 176.406 184.569C177.133 184.06 177.692 183.346 178.012 182.519C178.332 181.691 178.398 180.786 178.203 179.921C178.007 179.055 177.558 178.267 176.913 177.658C176.268 177.048 175.456 176.645 174.581 176.498C173.705 176.352 172.806 176.469 171.998 176.835C171.19 177.202 170.509 177.8 170.042 178.555C169.575 179.31 169.343 180.186 169.376 181.073C169.43 182.24 169.935 183.341 170.784 184.144C171.634 184.946 172.761 185.388 173.93 185.376Z" fill="#3d8361"/>
<path d="M235.673 143.935C224.435 135.873 212.947 130.066 199.12 138.149C199.106 136.22 199.747 134.343 200.938 132.825C202.13 131.307 203.801 130.239 205.678 129.794C209.482 128.644 213.529 128.565 217.375 129.565C225.605 131.612 231.098 137.23 235.673 143.935Z" fill="#3d8361"/>
<path d="M182.159 146.233C179.778 146.045 177.564 145.732 175.329 145.711C173.108 145.637 170.902 146.091 168.89 147.035C166.879 147.979 165.12 149.386 163.757 151.141C161.439 154.107 159.58 157.408 157.491 160.603C157.157 161.084 156.906 161.627 156.489 162.379C156.482 157.28 158.063 152.306 161.013 148.148C163.962 143.989 168.134 140.852 172.948 139.173C178.629 137.439 182.138 140.071 182.159 146.233Z" fill="#3d8361"/>
<path d="M208.916 191.391C217.542 190.953 223.871 195.903 224.268 203.423C224.358 205.21 224.092 206.997 223.486 208.68C222.879 210.363 221.945 211.91 220.736 213.229C219.527 214.548 218.069 215.615 216.445 216.366C214.821 217.117 213.064 217.538 211.276 217.605C202.775 218.085 196.133 212.717 195.778 205.073C195.423 197.428 201 191.809 208.916 191.391ZM209.396 192.833C207.171 192.73 204.962 193.266 203.031 194.376C201.099 195.486 199.525 197.124 198.493 199.099C197.524 200.882 197.058 202.895 197.146 204.923C197.235 206.951 197.874 208.916 198.994 210.608C200.565 212.842 202.783 214.54 205.349 215.474C207.915 216.407 210.705 216.532 213.344 215.83C214.978 215.494 216.523 214.82 217.879 213.85C219.236 212.88 220.374 211.637 221.221 210.2C222.067 208.763 222.603 207.165 222.793 205.508C222.983 203.851 222.824 202.173 222.326 200.582C220.738 195.548 215.934 192.686 209.396 192.833Z" fill="#3d8361"/>
<path d="M225.521 196.216C225.882 194.315 226.8 192.564 228.157 191.184C229.514 189.805 231.25 188.859 233.145 188.467C237.936 187.666 242.784 187.26 247.641 187.256C249.239 187.478 250.747 188.127 252.007 189.136C252.247 189.42 252.406 189.764 252.469 190.132C252.531 190.499 252.494 190.876 252.362 191.224C252.131 191.571 251.821 191.857 251.458 192.06C251.095 192.264 250.689 192.378 250.273 192.394C238.701 190.639 237.114 190.827 225.521 196.216Z" fill="#3d8361"/>
<path d="M278.492 182.389L284.507 188.822L275.797 195.089C275.342 194.14 275.175 193.078 275.316 192.035C275.457 190.992 275.9 190.013 276.591 189.219C276.946 188.739 277.406 187.778 277.197 187.506C275.651 185.271 277.072 184.018 278.492 182.389Z" fill="#3d8361"/>
<path d="M204.801 195.527C208.979 194.712 213.261 194.065 217.334 196.718C218.727 197.656 219.831 198.964 220.521 200.496C221.211 202.027 221.46 203.721 221.239 205.386C221.127 206.546 220.741 207.663 220.112 208.644C219.506 204.759 219.443 200.415 215.642 198.535C212.136 197.177 208.505 196.17 204.801 195.527Z" fill="#3d8361"/>
<path d="M66.4638 103.978C71.1843 113.565 78.4323 115.361 85.9308 114.985C106.045 113.941 126.16 112.604 146.233 110.808C182.222 107.487 218.148 103.246 254.179 100.364C264.117 99.8131 274.076 100.957 283.63 103.748C300.507 108.343 310.533 131.444 303.661 147.611C303.285 148.51 302.304 149.157 300.466 151.141C299.964 146.964 299.672 144.019 299.275 141.178C297.5 128.27 289.897 120.416 277.197 117.534C259.61 113.565 242.148 116.051 224.623 117.805C182.848 121.983 141.22 126.16 99.5077 130.191C98.2126 130.317 96.9594 130.693 94.432 131.215C104.249 140.008 112.709 148.572 113.836 161.439C114.212 165.846 113.836 170.295 113.983 176.185C112.27 174.347 111.455 173.888 111.455 173.428C111.455 154.358 97.6905 145.92 83.9048 137.335C78.5193 134.255 73.5496 130.5 69.1165 126.16C63.8529 120.395 63.7484 113.189 66.4638 103.978Z" fill="#3d8361"/>
<path d="M299.254 194.274C298.711 178.295 294.304 162.817 284.257 151.037C279.372 144.848 272.271 140.803 264.456 139.758C275.945 146.786 284.765 157.443 289.52 170.045C298.899 194.107 293.113 220.467 280.643 240.54C251.652 287.244 196.279 306.293 148.781 287.787C125.241 278.596 106.63 257.605 113.105 227.213C113.774 224.185 113.941 220.947 114.359 217.856L112.165 215.767C110.077 218.169 106.86 220.133 106.192 223.015C98.7766 254.158 112.708 284.904 136.019 301.656C149.507 311.407 165.389 317.313 181.971 318.742C188.356 319.262 194.779 319.08 201.125 318.199C213.506 316.424 225.428 312.275 236.237 305.98C247.449 299.46 257.53 291.165 266.085 281.416C285.698 259.129 300.382 227.694 299.254 194.274Z" fill="#3d8361"/>
<path d="M446.218 340.36V340.611C446.283 341.692 446.067 342.772 445.591 343.744C441.517 353.847 435.154 362.867 427.002 370.094C418.851 377.321 409.134 382.559 398.615 385.394C393.623 386.71 387.691 387.232 383.848 383.785C380.443 380.736 379.921 375.598 380.318 371.023C381.383 358.491 387.482 347.044 389.864 334.742C388.681 335.347 387.443 335.837 386.167 336.204C384.788 336.81 383.43 337.457 382.094 338.167C379.414 339.572 376.844 341.178 374.407 342.971C369.53 346.577 365.263 350.942 361.77 355.901C346.527 378.175 324.201 394.641 298.419 402.626C293.684 404.106 288.647 404.336 283.797 403.294C280.831 402.584 276.382 397.843 276.779 395.691C277.385 392.454 281.145 388.757 284.445 387.336C294.429 382.825 305.04 379.712 315.024 375.242C331.88 367.744 344.809 355.399 356.945 341.614C362.103 335.937 367.689 330.665 373.655 325.844C378.814 321.541 384.099 315.88 391.054 314.773C392.823 314.417 394.66 314.659 396.276 315.463C397.564 316.258 398.6 317.402 399.263 318.763C401.79 323.546 401.226 329.353 399.91 334.596C397.717 343.389 393.644 351.849 393.247 360.914C393.204 361.265 393.285 361.62 393.477 361.916C393.675 362.096 393.923 362.213 394.187 362.25C397.868 363.047 401.703 362.719 405.195 361.31C408.665 359.913 411.983 358.163 415.096 356.089L442.458 339.253C442.954 338.891 443.538 338.667 444.15 338.606C444.638 338.635 445.104 338.821 445.477 339.138C445.85 339.454 446.11 339.883 446.218 340.36Z" fill="#3d8361"/>
<path d="M220.884 362.146C222.973 358.386 231.328 354.564 233.563 353.457C248.351 345.875 263.495 338.836 277.427 329.833C290.635 321.475 302.923 311.743 314.084 300.8C319.998 294.924 324.685 287.93 327.87 280.226C340.026 249.855 356.026 238.66 388.569 239.683C389.559 239.798 390.509 240.148 391.337 240.704C392.165 241.26 392.849 242.006 393.331 242.879C395.232 250.733 386.083 261.824 377.916 262.116C348.674 263.161 345.248 266.168 334.052 293.844C330.287 302.698 324.936 310.789 318.262 317.719C296.915 340.486 270.534 358.783 239.746 365.551C236.049 366.365 232.289 366.992 228.529 367.451C226.32 367.949 224.005 367.63 222.012 366.553C221.621 366.366 221.276 366.095 221 365.76C220.725 365.425 220.527 365.033 220.419 364.613C220.312 364.193 220.297 363.754 220.378 363.328C220.458 362.902 220.631 362.498 220.884 362.146Z" fill="#3d8361"/>
<path d="M232.937 104.458C230.618 90.9439 230.514 89.4191 216.832 89.8368C196.885 90.4426 177.021 93.346 157.157 95.4974C152.979 95.9569 148.948 97.8367 144.771 98.3171C140.258 98.6133 135.733 98.6691 131.215 98.4842C131.417 93.1912 131.906 87.9129 132.677 82.6725C132.969 81.1686 135.831 79.3513 137.711 79.1007C153.564 77.0119 169.439 74.6517 185.376 73.3984C198.827 72.3332 212.529 71.3097 225.856 72.5838C244.153 74.401 247.432 83.2364 237.323 99.0064C236.258 100.594 234.879 101.993 232.937 104.458Z" fill="#3d8361"/>
<path d="M193.25 346.063C193.247 345.48 193.402 344.907 193.7 344.407C193.999 343.906 194.428 343.496 194.942 343.222C204.195 337.248 214.326 332.319 223.871 326.784C234.231 320.782 244.55 314.732 254.826 308.633C268.215 300.695 281.541 291.087 290.335 277.991C293.653 273.014 296.532 267.758 298.941 262.283C300.252 259.856 301.776 257.549 303.494 255.391L306.084 255.829C306.251 258.9 307.191 262.095 306.502 264.978C302.509 282.415 293.326 298.232 280.163 310.345C263.46 325.456 244.358 337.682 223.641 346.522C214.911 350.199 204.362 352.789 195.443 348.381C194.969 348.199 194.537 347.918 194.177 347.559C193.818 347.199 193.537 346.768 193.355 346.293C193.309 346.221 193.274 346.144 193.25 346.063Z" fill="#3d8361"/>
<path d="M252.466 378.355C252.842 376.015 255.913 374.804 257.667 373.676C271.244 364.966 285.343 357.091 299.212 348.883C312.685 340.883 327.243 332.841 338.898 322.376C346.773 315.337 352.956 306.523 360.162 298.857C360.705 303.494 362.042 306.586 361.143 308.758C358.595 315.024 356.005 321.478 351.89 326.617C336.392 345.979 317.489 361.916 294.784 371.608C282.44 376.893 270.325 384.642 256.31 382.553C255.795 382.491 255.289 382.364 254.806 382.177C254.079 381.845 253.469 381.304 253.052 380.623C252.635 379.942 252.431 379.152 252.466 378.355Z" fill="#3d8361"/>
<path d="M375.514 459.837L413.111 419.921L411.42 416.662C405.028 417.686 398.574 418.521 392.224 419.795C382.658 421.738 379.859 419.336 382.449 409.999C383.723 405.425 385.979 398.093 388.882 397.467C399.432 395.48 410.196 394.877 420.902 395.67C422.74 395.796 425.686 404.485 425.289 408.955C424.467 418.798 421.512 428.343 416.628 436.928C411.744 445.513 405.048 452.931 397.007 458.667C391.514 462.907 385.415 467.314 375.514 459.837Z" fill="#3d8361"/>
<path d="M343.911 429.445C339.734 434.312 337.039 438.74 333.092 441.393C331.943 442.166 326.825 438.469 324.507 435.92C316.006 426.667 315.797 422.364 323.442 412.944C324.716 411.357 329.603 410.229 330.293 411.064C334.971 416.558 338.982 422.594 343.911 429.445Z" fill="#3d8361"/>
<path d="M349.029 208.498L335.828 223.516C330.878 218.837 322.523 214.535 321.959 209.396C321.395 204.258 328.998 198.66 333.029 193.25L349.029 208.498Z" fill="#3d8361"/>
</g>
<defs>
<clipPath id="clip0_4443_36">
<rect width="527.47" height="527.47" fill="#3d8361"/>
</clipPath>
</defs>
</svg>
