<svg width="256" height="256" viewBox="0 0 36 37" fill="none" xmlns="http://www.w3.org/2000/svg">
    <path fill-rule="evenodd" clip-rule="evenodd"
          d="M11.8765 12.0471C9.80136 12.2678 9.85962 15.8058 11.9098 16.018C13.8396 16.106 15.7731 16.0846 17.706 16.0632C19.8714 16.0392 22.036 16.0153 24.1935 16.1452C27.2021 16.4252 29.4355 19.573 29.1605 22.5597C29.1189 25.5631 26.5437 28.3038 23.552 28.2443C20.1413 28.274 16.7286 28.2677 13.3148 28.2613C9.90542 28.255 6.49494 28.2486 3.08447 28.2782C6.33454 33.1314 11.9932 36.2453 17.7933 36.1181C24.3937 36.2539 30.8189 32.1643 33.6772 26.1232C35.8774 21.7791 36.0606 16.595 34.5607 11.9878C31.5323 12.0082 28.5053 11.9987 25.4791 11.9892C20.9437 11.9749 16.4101 11.9607 11.8765 12.0471ZM18.6346 0.0331345C11.9927 -0.399597 5.40078 3.44389 2.21729 9.35773C-0.249528 13.8206 -0.691179 19.378 1.05898 24.1888C4.62999 24.1241 8.20105 24.1384 11.7721 24.1528C15.693 24.1686 19.6139 24.1843 23.5348 24.0955C25.7349 24.2143 25.7266 20.1501 23.5514 20.2266C21.5546 20.1177 19.5555 20.1407 17.5564 20.1636C15.6595 20.1854 13.7626 20.2071 11.8676 20.1162C8.81748 20.0144 6.30073 17.1721 6.3675 14.0922C6.20919 10.9698 8.75923 7.93232 11.9011 7.94084C15.5076 7.89641 19.1119 7.90316 22.7163 7.90991C25.9913 7.91604 29.2665 7.92218 32.5436 7.88992C29.2767 3.42705 24.1932 0.185902 18.6346 0.0331345Z"
          fill="#17D9BB"/>
</svg>
