<!DOCTYPE svg PUBLIC "-//W3C//DTD SVG 1.1//EN" "http://www.w3.org/Graphics/SVG/1.1/DTD/svg11.dtd">

<svg version="1.1" id="Icons" xmlns="http://www.w3.org/2000/svg" xmlns:xlink="http://www.w3.org/1999/xlink"
     viewBox="0 0 32 32" xml:space="preserve" width="800px" height="800px" fill="#FFCA28" stroke="#FFCA28">

<g id="SVGRepo_bgCarrier" stroke-width="0"/>

    <g id="SVGRepo_tracerCarrier" stroke-linecap="round" stroke-linejoin="round"/>

    <g id="SVGRepo_iconCarrier"> <style type="text/css"> .st0{fill:none;stroke:#000000;stroke-width:2;stroke-linecap:round;stroke-linejoin:round;stroke-miterlimit:10;} </style>
        <path d="M25.7,5.9c-2.8-2.7-6.4-4-10.3-3.9C8.2,2.3,2.3,8.2,2,15.5c-0.2,6.1,3.5,11.6,9.2,13.7c0.5,0.2,1,0.3,1.4,0.3 c0.9,0,1.7-0.3,2.4-0.8c1.2-0.8,1.9-2.2,1.9-3.6v-2.2c2.3-0.5,4-2.5,4-4.9v-4c0-0.6-0.4-1-1-1h-1v-3c0-0.6-0.4-1-1-1s-1,0.4-1,1v3 h-2v-3c0-0.6-0.4-1-1-1s-1,0.4-1,1v3h-1c-0.6,0-1,0.4-1,1v4c0,2.4,1.7,4.4,4,4.9v2.2c0,0.8-0.4,1.5-1,2c-0.6,0.4-1.4,0.5-2.1,0.3 C7,25.5,3.8,20.8,4,15.5C4.2,9.4,9.4,4.2,15.5,4c3.3-0.1,6.4,1.1,8.8,3.3C26.7,9.6,28,12.7,28,16c0,5-3.1,9.5-7.8,11.2 c-0.5,0.2-0.8,0.8-0.6,1.3s0.8,0.8,1.3,0.6c5.4-2,9.1-7.3,9.1-13.1C30,12.2,28.5,8.6,25.7,5.9z"/> </g>

</svg>