<?xml version="1.0" encoding="utf-8"?>
<!-- Generator: Adobe Illustrator 27.6.1, SVG Export Plug-In . SVG Version: 6.00 Build 0)  -->
<svg version="1.1" id="Layer_1" xmlns="http://www.w3.org/2000/svg" xmlns:xlink="http://www.w3.org/1999/xlink" x="0px" y="0px"
	 viewBox="0 0 1200 1200" style="enable-background:new 0 0 1200 1200;" xml:space="preserve">
<style type="text/css">
	.st0{fill-rule:evenodd;clip-rule:evenodd;fill:#FFFFFF;}
</style>
<path class="st0" d="M1200.9,0H0v1200.9h1200.9V0z M486.5,1040.8H386.2V644H242.3v-82.7h388.1V644H486.5V1040.8z M1063.9,897.9
	c0,95-73.8,155.2-193.4,155.2c-114.6,0-187.1-54.8-192.7-139.9l-0.3-5.3h96.7l0.3,3.3c3.7,35.9,42.5,60.1,98.7,60.1
	c53.5,0,90.4-25.6,90.4-62.5v-0.3c0-31.6-23.6-49.2-83.1-61.5L830,836.8c-99.7-20.3-142.5-66.8-142.5-139.6v-0.3
	c0-89,76.4-147.9,182.8-147.9c112,0,177.8,59.1,184.1,139.2l0.3,4.3h-94.4l-0.7-4c-5.7-34.2-38.9-58.1-89.4-58.1
	c-49.5,0.3-82.4,22.9-82.4,58.8v0.3c0,31.2,23.3,49.8,79.7,61.5l50.8,10.3c101.3,20.9,145.5,61.5,145.5,136.2V897.9z"/>
</svg>
